<svg xmlns="http://www.w3.org/2000/svg" viewBox="0 0 53.23 53.23"><defs><style>.cls-1{fill:none;}</style></defs><title>icn_photoshop-bw</title><g id="Layer_2" data-name="Layer 2"><g id="Layer_1-2" data-name="Layer 1"><rect class="cls-1" width="53.23" height="53.23"/><path d="M6.11,7.63v40h41v-40Zm39.3,38.18H7.74V9.23H45.41Z"/><path d="M16.18,27.23q0-4.66,0-9.31c0-.28.09-.38.38-.39l.94,0c1.3,0,2.6,0,3.89,0a8.28,8.28,0,0,1,3.19.6,5,5,0,0,1,3.11,3.67,7.65,7.65,0,0,1-.07,3.93,5.4,5.4,0,0,1-3,3.5,8.12,8.12,0,0,1-2.42.7,14.22,14.22,0,0,1-2.57.08h-.28c-.06,0-.09,0-.08.08s0,.07,0,.11q0,3.24,0,6.49s0,.09,0,.14a.15.15,0,0,1-.16.16H16.32a.13.13,0,0,1-.14-.13c0-.06,0-.12,0-.18q0-4.67,0-9.35Zm4.18-.12v0h.44a5.87,5.87,0,0,0,1.88-.29A2.81,2.81,0,0,0,24.55,25a4.47,4.47,0,0,0,.08-2.39,2.78,2.78,0,0,0-1.88-2.09,4.32,4.32,0,0,0-1.45-.26c-.63,0-1.26,0-1.89,0-.08,0-.1,0-.1.12q0,3.3,0,6.6c0,.1,0,.12.12.12Z"/><path d="M29.63,34.85q0-.61,0-1.22s0-.07,0-.11.08-.21.21-.12a6.4,6.4,0,0,0,1.47.7,6.53,6.53,0,0,0,2.25.33,2.81,2.81,0,0,0,1-.21,1.25,1.25,0,0,0,.48-2,3.22,3.22,0,0,0-.85-.72c-.53-.31-1.08-.61-1.63-.9a7.69,7.69,0,0,1-1.87-1.32,3.73,3.73,0,0,1-1.09-2.42A4.18,4.18,0,0,1,30,24.85a3.94,3.94,0,0,1,1.88-1.93A5.36,5.36,0,0,1,34,22.35a10.09,10.09,0,0,1,2.9.24c.23.05.44.14.66.21a.33.33,0,0,1,.23.33q0,1.23,0,2.46c0,.17-.12.22-.29.14s-.5-.25-.76-.34A6.56,6.56,0,0,0,34.38,25a2.39,2.39,0,0,0-1.08.24A1.17,1.17,0,0,0,33,27.18a5.52,5.52,0,0,0,1.25.85c.5.27,1,.52,1.5.8a6.85,6.85,0,0,1,1.63,1.22,3.64,3.64,0,0,1,1,2.27,4.67,4.67,0,0,1-.31,2.27A3.9,3.9,0,0,1,36,36.68a6.08,6.08,0,0,1-2.17.48,9,9,0,0,1-3.13-.37c-.29-.09-.57-.23-.86-.35a.28.28,0,0,1-.18-.29c0-.43,0-.86,0-1.29Z"/></g></g></svg>