<svg xmlns="http://www.w3.org/2000/svg" viewBox="0 0 53.23 53.23"><defs><style>.cls-1{fill:none;}</style></defs><title>icn_react-bw</title><g id="Layer_2" data-name="Layer 2"><g id="Layer_1-2" data-name="Layer 1"><rect class="cls-1" width="53.23" height="53.23"/><g id="a7Pg0P.tif"><path d="M16.34,48.64l-.64-.14a4.57,4.57,0,0,1-3.31-3.14,11.89,11.89,0,0,1-.67-4.44,25.47,25.47,0,0,1,.71-5.42c0-.14.06-.28.08-.4-1.12-.42-2.23-.79-3.3-1.24a14.79,14.79,0,0,1-5.48-3.69,5.07,5.07,0,0,1-1.51-3.8A5.09,5.09,0,0,1,3.66,23.3a14.21,14.21,0,0,1,5.28-3.52c1.17-.49,2.37-.88,3.6-1.34-.14-.73-.31-1.49-.44-2.26a16.72,16.72,0,0,1,.06-7.34,7.66,7.66,0,0,1,.93-2.11,4.25,4.25,0,0,1,4.4-1.83,11.13,11.13,0,0,1,5,1.93c1.52,1,3,2.18,4.49,3.32l1.1-1a19.3,19.3,0,0,1,6-3.81,7.5,7.5,0,0,1,3.22-.51A4.1,4.1,0,0,1,40.68,7a9.64,9.64,0,0,1,1.18,4.49,24,24,0,0,1-.65,6.61c0,.13-.05.26-.09.44l.44.15a22.47,22.47,0,0,1,6.71,3.14A8.81,8.81,0,0,1,50.55,24a4.43,4.43,0,0,1-.26,5.66,12.21,12.21,0,0,1-3.72,3,23.36,23.36,0,0,1-5,2.08c-.32.09-.4.21-.32.55a21.12,21.12,0,0,1,.56,7.43A8,8,0,0,1,40.3,47a4,4,0,0,1-2.65,1.55,1.45,1.45,0,0,0-.25.08H36.17c-.47-.11-.94-.19-1.4-.33a17.7,17.7,0,0,1-6.24-3.6c-.56-.46-1.09-1-1.59-1.41-.93.77-1.81,1.55-2.74,2.25a15.27,15.27,0,0,1-5.71,2.85l-1.1.24Zm10.5-29.9-4.08.16a.73.73,0,0,0-.66.34A60.62,60.62,0,0,0,18,26.43a.79.79,0,0,0,0,.6,56,56,0,0,0,4.19,7.24.68.68,0,0,0,.45.25,60,60,0,0,0,8.33,0,.68.68,0,0,0,.6-.34A71,71,0,0,0,35.69,27a.6.6,0,0,0,0-.64q-2.05-3.52-4.09-7a.76.76,0,0,0-.72-.39Zm-13.72,1.8a1.33,1.33,0,0,0-.25,0,18.94,18.94,0,0,0-6.4,3,9.52,9.52,0,0,0-1.62,1.59A2.28,2.28,0,0,0,4.73,28,7.47,7.47,0,0,0,5.89,29.4a16,16,0,0,0,5.29,3c.62.23,1.26.42,1.87.63a1.13,1.13,0,0,0,.09-.13c.77-2,1.54-4,2.29-6a.8.8,0,0,0,0-.53c-.31-.76-.66-1.49-1-2.26C14,23,13.56,21.77,13.12,20.55ZM14.59,35.6a.52.52,0,0,0-.07.12,22.15,22.15,0,0,0-.71,6.07,7.76,7.76,0,0,0,.8,3.47,2.21,2.21,0,0,0,1.62,1.22,4.91,4.91,0,0,0,2.37-.24,16.72,16.72,0,0,0,5.34-3.11c.52-.42,1-.89,1.49-1.33a1.1,1.1,0,0,0-.08-.16c-1.32-1.63-2.64-3.27-4-4.89a.79.79,0,0,0-.47-.24c-1.13-.15-2.26-.26-3.39-.42S15.56,35.77,14.59,35.6Zm13.84,6.23a22.44,22.44,0,0,0,4.68,3.55,8.82,8.82,0,0,0,3,1.12c1.46.21,2.35,0,3-1.51a7.31,7.31,0,0,0,.55-1.7,15.83,15.83,0,0,0,0-5.66c-.11-.71-.27-1.42-.4-2l-6.53.92a.6.6,0,0,0-.35.21C31.06,38.4,29.76,40.09,28.43,41.83Zm-.05-30.17c1.36,1.75,2.67,3.45,4,5.13a.69.69,0,0,0,.41.19l6,1c.27,0,.4,0,.44-.29.21-1.63.5-3.26.62-4.9a9,9,0,0,0-.63-4.21A2.37,2.37,0,0,0,36.5,6.88a4.66,4.66,0,0,0-.86.15A17.84,17.84,0,0,0,28.38,11.66Zm-3,0a21.14,21.14,0,0,0-4.85-3.55A14.24,14.24,0,0,0,17.54,7a2.44,2.44,0,0,0-3.21,1.79,10,10,0,0,0-.45,2A17.68,17.68,0,0,0,14.17,16c.11.65.27,1.3.4,1.93l.16,0L21,17a.56.56,0,0,0,.31-.2ZM40.69,33c.86-.31,1.7-.58,2.5-.92a14.66,14.66,0,0,0,5-3.08c1.59-1.6,1.58-3,0-4.57a14.15,14.15,0,0,0-4.67-2.87c-.94-.38-1.91-.69-2.87-1-.06.13-.1.2-.13.26-.74,1.89-1.48,3.77-2.2,5.66a.84.84,0,0,0,0,.57c.41,1,.86,1.95,1.26,2.94S40.3,31.92,40.69,33ZM37,29.1l-3,5.2,4.68-.79ZM23.89,36.73l3,3.61,2.94-3.61Zm-7.2-7.55-1.62,4.41,4.61.74Zm10.17-16-3,3.58h6ZM37,24.27,38.58,20,34,19.17ZM15.1,20l1.59,4.32,2.93-5.1Z"/><path d="M26.84,22.31a4.38,4.38,0,1,1-4.39,4.36A4.39,4.39,0,0,1,26.84,22.31Z"/></g></g></g></svg>