<svg xmlns="http://www.w3.org/2000/svg" viewBox="0 0 53.23 53.23"><defs><style>.cls-1,.cls-2{fill:none;}.cls-2{stroke:#000;stroke-miterlimit:10;}</style></defs><title>icn_html5-bw</title><g id="Layer_2" data-name="Layer 2"><g id="Layer_1-2" data-name="Layer 1"><rect class="cls-1" width="53.23" height="53.23"/><g id="MHrFGS.tif"><path class="cls-2" d="M42.24,13.05c-.08.89-.15,1.72-.22,2.55q-.23,2.59-.47,5.17Q41.27,23.91,41,27c-.18,2-.35,4.06-.53,6.09s-.37,4.09-.56,6.13c-.13,1.4-.26,2.81-.36,4.21a.66.66,0,0,1-.56.72c-3.86,1.05-7.71,2.13-11.57,3.19a1.28,1.28,0,0,1-.64,0L15,44.16a.54.54,0,0,1-.47-.57c-.24-2.78-.49-5.56-.74-8.34s-.46-5.34-.7-8-.48-5.31-.72-8q-.26-2.9-.52-5.8c0-.13,0-.27,0-.43Z"/><path d="M33.85,4.56v5.77H31.94V7.68l-.09,0L30.59,9.58l-1.33-2v2.78H27.35c0-.18,0-.34,0-.5q0-2.39,0-4.77c0-.17,0-.33,0-.5h2.1l1.2,2,1.23-2Z"/><path d="M20.34,4.56v5.77h-2V8.44H16.63v1.89h-2V4.56h2V6.45h1.68V4.56Z"/><path d="M26.55,4.56V6.47H24.82v3.86h-2V6.51H21.1V4.56Z"/><path d="M36.78,4.56V8.41h2.7v1.93H34.81V9.83q0-2.39,0-4.78c0-.17,0-.33,0-.5Z"/></g><path d="M17.48,19.34c0,.23,0,.42,0,.61q.19,2.17.39,4.34c.18,2,.38,4.09.55,6.13,0,.39.16.5.55.5,4,0,8.08,0,12.12,0h.54c0,.45-.07.85-.1,1.25-.09,1.06-.19,2.11-.27,3.17a.55.55,0,0,1-.49.56c-1.16.3-2.31.63-3.47.92a1.36,1.36,0,0,1-.65,0c-1.16-.3-2.32-.63-3.48-.93a.47.47,0,0,1-.42-.51c0-.75-.13-1.5-.18-2.25,0-.29-.12-.41-.44-.4-.82,0-1.65,0-2.47,0h-1a1.46,1.46,0,0,0,0,.22c.16,1.85.32,3.7.51,5.55a.57.57,0,0,0,.36.36q3.6,1,7.22,2a1.13,1.13,0,0,0,.57,0l7.25-2a.43.43,0,0,0,.37-.43q.21-2.54.44-5.09c.12-1.4.26-2.81.38-4.21.06-.7.12-1.4.18-2.15H22l-.34-3.83H36.29l.35-3.84Z"/></g></g></svg>