<svg xmlns="http://www.w3.org/2000/svg" viewBox="0 0 53.23 53.23"><defs><style>.cls-1{fill:none;}</style></defs><title>icn_illustrator-bw</title><g id="Layer_2" data-name="Layer 2"><g id="Layer_1-2" data-name="Layer 1"><rect class="cls-1" width="53.23" height="53.23"/><g id="kIEcSg.tif"><path d="M22.17,31.89c-1,0-2,0-3,0a.35.35,0,0,0-.41.29c-.46,1.52-.94,3-1.4,4.56a.51.51,0,0,1-.58.44c-.84,0-1.67,0-2.51,0-.44,0-.47,0-.33-.46L19.3,20.3a8.21,8.21,0,0,0,.6-2.59c0-.2.09-.26.28-.26,1.29,0,2.59,0,3.88,0a.45.45,0,0,1,.31.27q1.95,5.75,3.87,11.51l2.49,7.41c.16.48.14.52-.35.52-.94,0-1.88,0-2.82,0a.46.46,0,0,1-.51-.38c-.49-1.54-1-3.07-1.49-4.6-.07-.22-.16-.31-.4-.3C24.16,31.9,23.17,31.89,22.17,31.89Zm2.41-3.18-2.43-8.13-2.38,8.13Z"/><path d="M35.93,30.16c0,2.2,0,4.4,0,6.6,0,.32-.11.42-.42.41-.85,0-1.69,0-2.54,0-.27,0-.39-.09-.39-.38q0-6.65,0-13.29c0-.27.08-.36.35-.35q1.32,0,2.64,0c.28,0,.35.09.35.36C35.92,25.72,35.93,27.94,35.93,30.16Z"/><path d="M34.26,21.25a1.73,1.73,0,0,1-1.84-1.89,1.88,1.88,0,0,1,3.77,0A1.76,1.76,0,0,1,34.26,21.25Z"/></g><path d="M6.11,7.63v40h41v-40Zm39.3,38.18H7.74V9.23H45.41Z"/></g></g></svg>