<svg xmlns="http://www.w3.org/2000/svg" viewBox="0 0 77.97 77.96"><defs><style>.cls-1{fill:#2194f4;}</style></defs><title>icn_top_1</title><g id="Layer_2" data-name="Layer 2"><g id="Layer_1-2" data-name="Layer 1"><g id="QYr3E9.tif"><path class="cls-1" d="M39.12,0A39,39,0,1,1,0,38.61,39.08,39.08,0,0,1,39.12,0ZM42,27.35l.43-.16,7.42,7.52c1.48,1.5,3.35,1.65,4.66.4s1.28-3.14-.23-4.68Q47.53,23.6,40.71,16.83c-1.34-1.33-2.39-1.28-3.77.08s-2.82,2.83-4.23,4.25c-3.12,3.12-6.26,6.21-9.34,9.37-1.78,1.83-1.36,4.36.81,5.21a3.19,3.19,0,0,0,3.66-.95c2.49-2.54,5-5.06,7.88-7.95v2.38q0,14.2,0,28.4A11,11,0,0,0,36,59.87a3,3,0,0,0,5.8,0A10.94,10.94,0,0,0,42,57.62q0-14.2,0-28.4Q42,28.28,42,27.35Z"/></g></g></g></svg>