<svg xmlns="http://www.w3.org/2000/svg" viewBox="0 0 26 26"><defs><style>.cls-1{fill:none;}.cls-2{fill:#2194f4;}</style></defs><title>icn_linkedin_1</title><g id="Layer_2" data-name="Layer 2"><g id="Layer_1-2" data-name="Layer 1"><rect class="cls-1" width="26" height="26"/><path class="cls-2" d="M7.06,2.18A2.54,2.54,0,0,0,4.49,4.72a2.54,2.54,0,0,0,.76,1.81A2.42,2.42,0,0,0,7,7.25h.06A2.4,2.4,0,0,0,8.8,6.52a2.54,2.54,0,0,0,.76-1.81,2.37,2.37,0,0,0-.73-1.77A2.4,2.4,0,0,0,7.06,2.18Zm1.3,3.9A1.75,1.75,0,0,1,7,6.62,1.92,1.92,0,0,1,5.7,6.08a1.84,1.84,0,0,1-.57-1.36,1.89,1.89,0,0,1,1.93-1.9,1.85,1.85,0,0,1,1.3.54,1.89,1.89,0,0,1,.57,1.36A1.84,1.84,0,0,1,8.36,6.08Z"/><path class="cls-2" d="M8.3,7.89H5.73a.93.93,0,0,0-.92,1V19.93a1,1,0,0,0,1,1H8.3a1,1,0,0,0,1-.92V8.84A1,1,0,0,0,8.3,7.89ZM8.61,20a.31.31,0,0,1-.32.29H5.76a.34.34,0,0,1-.32-.32V8.84a.31.31,0,0,1,.29-.32H8.3a.34.34,0,0,1,.32.32Z"/><path class="cls-2" d="M19.07,7.57H18.4A4.28,4.28,0,0,0,15.24,9V8.52a.68.68,0,0,0-.63-.63H11.43a.65.65,0,0,0-.63.6V20.31a.62.62,0,0,0,.63.57h3.49a.62.62,0,0,0,.63-.57V13.46a1.79,1.79,0,0,1,1.74-1.87,1.87,1.87,0,0,1,1.33.54,1.66,1.66,0,0,1,.44,1.3v6.81a.68.68,0,0,0,.63.63h3.17a.68.68,0,0,0,.63-.63V12.07A4.4,4.4,0,0,0,19.07,7.57Zm3.8,12.64,0,0H19.74l0-6.81a2.33,2.33,0,0,0-.6-1.74A2.49,2.49,0,0,0,17.33,11,2.44,2.44,0,0,0,15,13.46v6.78H11.46V8.52H14.6l0,0v2l.86-.86,0,0A3.62,3.62,0,0,1,18.44,8.2h.67a3.78,3.78,0,0,1,3.77,3.87Z"/></g></g></svg>