<svg xmlns="http://www.w3.org/2000/svg" viewBox="0 0 53.23 53.23"><defs><style>.cls-1,.cls-2{fill:none;}.cls-2{stroke:#000;stroke-miterlimit:10;}</style></defs><title>icn_passport-bw</title><g id="Layer_2" data-name="Layer 2"><g id="Layer_1-2" data-name="Layer 1"><rect class="cls-1" width="53.23" height="53.23"/><circle cx="26.85" cy="38.88" r="0.01" transform="translate(-19.49 29.68) rotate(-44.14)"/><path class="cls-2" d="M35.16,22.31a8.29,8.29,0,0,1-7.6,8.3c-.6,0-.68.36-.67.84,0,2.22,0,4.44,0,6.67,0,.25,0,.51-.05.76h0v0c.61,0,1.22,0,1.83-.07A16.53,16.53,0,0,0,43.37,22.31Z"/><path class="cls-2" d="M30.15,14.64a7.92,7.92,0,0,1,5,6.94c0,.25,0,.49,0,.73h8.21a17.25,17.25,0,0,0-.25-3A16.56,16.56,0,0,0,26.82,5.7v8.2A8.34,8.34,0,0,1,30.15,14.64Z"/><path class="cls-2" d="M26.85,38.87a5.85,5.85,0,0,1-.61.06H19.5c-.91,0-1-.06-1-1,0-5.11,0-10.21,0-15.32,0-.12,0-.24,0-.35H10.28c0,.17,0,.34,0,.52q0,11.81,0,23.61c0,.6.15.83.79.83q7.52,0,15,0c.63,0,.81-.2.8-.82,0-2.52,0-5,0-7.57h0Z"/><path class="cls-2" d="M21.58,15.87a8.23,8.23,0,0,1,5.24-2V5.7a16.61,16.61,0,0,0-9.35,3,16.1,16.1,0,0,0-7.19,13.66h8.25A8.14,8.14,0,0,1,21.58,15.87Z"/></g></g></svg>