<svg xmlns="http://www.w3.org/2000/svg" viewBox="0 0 26 26"><defs><style>.cls-1{fill:#2194f4;}.cls-2{fill:none;}</style></defs><title>icn_angelco_1</title><g id="Layer_2" data-name="Layer 2"><g id="Layer_1-2" data-name="Layer 1"><g id="VMOWkc.tif"><path class="cls-1" d="M20,14.52v1.27a.36.36,0,0,0,0,.05c0,.27,0,.53-.09.8a7.52,7.52,0,0,1-1.25,3.29,7,7,0,0,1-3.14,2.56,7.63,7.63,0,0,1-2.93.53,6.9,6.9,0,0,1-3-.72,6.7,6.7,0,0,1-2.33-2,4.81,4.81,0,0,1-1.08-3.64,2.59,2.59,0,0,1,.34-1.05,2.13,2.13,0,0,1,1.11-.88c.2-.08.41-.13.62-.2l0-.06c-.1-.28-.21-.56-.3-.85a1.21,1.21,0,0,1,.06-.94,2.77,2.77,0,0,1,1.25-1.24,1.14,1.14,0,0,1,.66-.11,2.36,2.36,0,0,1,.83.28l.16.09,0-.09c-.4-1.18-.81-2.36-1.2-3.54a21.76,21.76,0,0,1-.7-2.54,3.07,3.07,0,0,1,0-1.25A1.54,1.54,0,0,1,10.09,3a1,1,0,0,1,1,.28,4.67,4.67,0,0,1,.42.48,10.3,10.3,0,0,1,1,1.88c.56,1.24,1,2.52,1.44,3.8l.28.82,0-.1c.31-.85.6-1.71.92-2.55a18.48,18.48,0,0,1,1.23-2.7,5.17,5.17,0,0,1,.84-1.15,1.19,1.19,0,0,1,.66-.39A1.36,1.36,0,0,1,19.25,4a1.88,1.88,0,0,1,.32,1.47,13.3,13.3,0,0,1-.3,1.42c-.35,1.35-.81,2.66-1.27,4l-.26.73.52.15a2.15,2.15,0,0,1,1.45,1.39,4.77,4.77,0,0,1,.22,1Zm-8.3,3.85a4.22,4.22,0,0,1,.06.49,1.18,1.18,0,0,1-.69,1.1A1.47,1.47,0,0,1,9.8,20,3.52,3.52,0,0,1,8,18.4a1.51,1.51,0,0,1-.2-.86.55.55,0,0,1,.15-.39l.36.45a7.18,7.18,0,0,0,.82,1,1.87,1.87,0,0,0,.76.46.77.77,0,0,0,.84-.23.33.33,0,0,0,.09-.35,2.93,2.93,0,0,0-.17-.41,10.25,10.25,0,0,0-1.43-1.95,3,3,0,0,0-.62-.55A.57.57,0,0,0,8,15.51a1.5,1.5,0,0,0-.37.2,1.69,1.69,0,0,0-.52.69,2.14,2.14,0,0,0-.07,1.45,5.82,5.82,0,0,0,2.35,3.27,5.52,5.52,0,0,0,2.73.95,6.43,6.43,0,0,0,2.22-.18,5.79,5.79,0,0,0,2.79-1.72,6.87,6.87,0,0,0,1.78-3.77A9.41,9.41,0,0,0,19,14.69a5.78,5.78,0,0,0-.12-1,1.44,1.44,0,0,0-.83-1.06l-.22-.1a10.39,10.39,0,0,0-2.2-.62A14.74,14.74,0,0,0,13,11.64a3.58,3.58,0,0,0-.64.05.51.51,0,0,0-.44.47,1.27,1.27,0,0,0,.35,1.13,2.19,2.19,0,0,0,1,.54,9.36,9.36,0,0,0,2.28.3c.44,0,.87,0,1.31,0a.41.41,0,0,1,.42.28c0,.08,0,.16.07.24a.08.08,0,0,1,0,.11c-.22.12-.43.24-.65.35s-.72.29-1.06.48a4.56,4.56,0,0,0-1.77,1.87,2.73,2.73,0,0,0-.19,2.29c.09.25.16.51.23.77a.53.53,0,0,1,0,.37,1,1,0,0,1-.55-.21,1.73,1.73,0,0,1-.55-.84,4.17,4.17,0,0,1-.2-1.34c0-.07,0-.14,0-.23A.88.88,0,0,1,11.68,18.37ZM11.58,11a.61.61,0,0,1,.58-.27l.58,0,.62.05,0-.1-.39-1.13c-.43-1.23-.85-2.46-1.29-3.69a9.54,9.54,0,0,0-.6-1.39,1.41,1.41,0,0,0-.4-.49.59.59,0,0,0-.89.21,1,1,0,0,0-.1.44,4.47,4.47,0,0,0,.16,1.09,29.35,29.35,0,0,0,.89,2.85C11,9.44,11.28,10.23,11.58,11Zm5.17.27,0-.09c.32-.91.66-1.82,1-2.74s.62-1.84.86-2.78a1.69,1.69,0,0,0,.06-.82.63.63,0,0,0-.41-.51.58.58,0,0,0-.63.17,2.66,2.66,0,0,0-.34.42,7.68,7.68,0,0,0-.72,1.59c-.47,1.33-.93,2.67-1.39,4L15,11ZM12,17.48a.48.48,0,0,0,.3-.1.69.69,0,0,0,.27-.82,11,11,0,0,0-.9-2.18A7.79,7.79,0,0,0,10.8,13a2,2,0,0,0-.71-.57.68.68,0,0,0-.74.08,2,2,0,0,0-.44.46.73.73,0,0,0-.1.69,6.29,6.29,0,0,0,.32.75,11,11,0,0,0,1.6,2.21,3.91,3.91,0,0,0,.83.71A.9.9,0,0,0,12,17.48ZM14.88,15a7.38,7.38,0,0,1-2.07-.4c.12.29.25.56.36.84s.2.57.3.87A6.67,6.67,0,0,1,14.88,15Z"/></g><rect class="cls-2" width="26" height="26"/></g></g></svg>