<svg xmlns="http://www.w3.org/2000/svg" viewBox="0 0 53.23 53.23"><defs><style>.cls-1,.cls-2{fill:none;}.cls-2{stroke:#000;stroke-miterlimit:10;}</style></defs><title>icn_js-bw</title><g id="Layer_2" data-name="Layer 2"><g id="Layer_1-2" data-name="Layer 1"><rect class="cls-1" width="53.23" height="53.23"/><g id="VBPZ34.tif"><path class="cls-2" d="M5.81,46.91q0-20.85,0-41.7h41.7q0,20.85,0,41.7Z"/><path d="M30.59,39.55l3.18-1.84c.23.3.43.6.67.89A4.08,4.08,0,0,0,39,39.83a1.77,1.77,0,0,0,1.25-1.41,1.66,1.66,0,0,0-.8-1.79,24.38,24.38,0,0,0-2.4-1.2,16.74,16.74,0,0,1-3.19-1.71,5.27,5.27,0,0,1,2.34-9.51,7.1,7.1,0,0,1,4.46.56,5.87,5.87,0,0,1,2.41,2.46l-3,1.94a11,11,0,0,0-.75-.94,2.37,2.37,0,0,0-2.61-.55A1.63,1.63,0,0,0,36,30.27a4.53,4.53,0,0,0,1.36,1c1.05.53,2.14,1,3.2,1.48A7.35,7.35,0,0,1,43,34.54a5.36,5.36,0,0,1,1.16,4A4.74,4.74,0,0,1,40.92,43a8.56,8.56,0,0,1-8.5-1.13A6.26,6.26,0,0,1,30.59,39.55Z"/><path d="M28.5,24.31c0,.15,0,.25,0,.35q0,6.42,0,12.84a7.09,7.09,0,0,1-.71,3.42,4.89,4.89,0,0,1-3.89,2.55,7.2,7.2,0,0,1-4.42-.62,5.84,5.84,0,0,1-2.58-2.65.34.34,0,0,1,0-.32c1-.6,2-1.19,2.93-1.77a.38.38,0,0,1,.11,0c.18.29.36.59.56.87a2.32,2.32,0,0,0,2.76,1,1.55,1.55,0,0,0,1.17-1.41,5.45,5.45,0,0,0,.08-.94q0-6.41,0-12.81c0-.55,0-.48.5-.48H28.5Z"/></g></g></g></svg>