<svg xmlns="http://www.w3.org/2000/svg" viewBox="0 0 53.23 53.23"><defs><style>.cls-1,.cls-2{fill:none;}.cls-2{stroke:#000;stroke-miterlimit:10;}</style></defs><title>icn_css3-bw</title><g id="Layer_2" data-name="Layer 2"><g id="Layer_1-2" data-name="Layer 1"><rect class="cls-1" width="53.23" height="53.23"/><g id="MHrFGS.tif"><path class="cls-2" d="M42.24,13.05c-.08.89-.15,1.72-.22,2.55q-.23,2.59-.47,5.17Q41.27,23.91,41,27c-.18,2-.35,4.06-.53,6.09s-.37,4.09-.56,6.13c-.13,1.4-.26,2.81-.36,4.21a.66.66,0,0,1-.56.72c-3.86,1.05-7.71,2.13-11.57,3.19a1.28,1.28,0,0,1-.64,0L15,44.16a.54.54,0,0,1-.47-.57c-.24-2.78-.49-5.56-.74-8.34s-.46-5.34-.7-8-.48-5.31-.72-8q-.26-2.9-.52-5.8c0-.13,0-.27,0-.43Z"/></g><polygon points="37.28 18.46 17.33 18.46 17.78 22.38 27.59 22.51 18.03 26.56 18.48 30.48 32.13 31.28 31.91 35.48 27.33 36.82 22.9 35.75 22.63 32.52 18.68 32.52 19.21 38.72 27.31 41.12 35.49 38.64 36.51 26.56 27.33 26.56 36.75 22.38 37.28 18.46"/><polygon points="17.64 10.33 22.2 10.33 22.2 8.51 19.57 8.52 19.6 6.6 22.2 6.59 22.2 4.6 17.64 4.6 17.64 10.33"/><polygon points="24.3 10.33 28.87 10.33 28.87 8.48 27.13 6.56 28.87 6.54 28.87 4.6 24.3 4.6 24.3 6.62 26.18 8.48 24.3 8.48 24.3 10.33"/><polygon points="30.89 10.33 35.46 10.33 35.46 8.48 33.72 6.56 35.46 6.54 35.46 4.6 30.89 4.6 30.89 6.62 32.77 8.48 30.89 8.48 30.89 10.33"/></g></g></svg>