<svg xmlns="http://www.w3.org/2000/svg" viewBox="0 0 26 26"><defs><style>.cls-1{fill:none;}.cls-2{fill:#030104;}</style></defs><title>icn_mail</title><g id="Layer_2" data-name="Layer 2"><g id="Layer_1-2" data-name="Layer 1"><rect class="cls-1" width="26" height="26"/><path class="cls-2" d="M23.86,7.48H2.21a.29.29,0,0,0-.29.29V19.21a.29.29,0,0,0,.29.29H23.86a.29.29,0,0,0,.29-.29V7.77A.29.29,0,0,0,23.86,7.48Zm-.58.6h-.63l-9.15,5.6L3.91,8.08H23.28Zm.27.27V18.63a.25.25,0,0,1,0,0l-7.9-5.42,7.89-5A.26.26,0,0,1,23.55,8.35Zm-21-.17,7.95,4.65-8,5.5v-10A.26.26,0,0,1,2.58,8.19Zm8.65,5.07,2.27,1.33L15,13.66l7.63,5.24H3Z"/></g></g></svg>