<svg xmlns="http://www.w3.org/2000/svg" viewBox="0 0 26 26.92"><defs><style>.cls-1{fill:none;}.cls-2{fill:#2194f4;}</style></defs><title>icn_mail_1</title><g id="Layer_2" data-name="Layer 2"><g id="Layer_1-2" data-name="Layer 1"><rect class="cls-1" y="0.92" width="26" height="26"/><path class="cls-2" d="M24,8.54h0L21.14,6.66V.37A.37.37,0,0,0,20.78,0H5.29a.37.37,0,0,0-.37.37V6.66L2.08,8.54h0a.37.37,0,0,0-.16.31v11.4a.37.37,0,0,0,.37.37h21.5a.37.37,0,0,0,.37-.37V8.85A.37.37,0,0,0,24,8.54ZM4.92,9.83,3.76,9.22H4.92ZM2.65,9.46,11.12,14,2.65,19.56ZM13,13.57l9.53,6.31H3.51L13,13.57Zm1.91.38,8.47-4.49v10.1L14.94,14Zm6.2-4.74H22.3l-1.16.61Zm1.41-.74H21.14V7.54ZM20.41.74v9.48l-6.16,3.27-1-.67a.37.37,0,0,0-.41,0l-1,.67L5.66,10.22V.74H20.41ZM4.92,8.48H3.51l1.41-.94Z"/><path class="cls-2" d="M13,9.68H16a.37.37,0,1,0,0-.74H13a2.57,2.57,0,0,1-2.57-2.57V6.27a2.57,2.57,0,0,1,5.13,0v.27a.56.56,0,0,1-1.11,0V6a1.59,1.59,0,1,0-.54,1.2,1.29,1.29,0,0,0,2.39-.68V6.27a3.3,3.3,0,0,0-6.6,0v.11A3.31,3.31,0,0,0,13,9.68Zm-.14-2.8A.85.85,0,1,1,13.75,6,.86.86,0,0,1,12.9,6.88Z"/></g></g></svg>