<svg xmlns="http://www.w3.org/2000/svg" viewBox="0 0 53.23 53.23"><defs><style>.cls-1{fill:none;}</style></defs><title>icn_mongo-bw</title><g id="Layer_2" data-name="Layer 2"><g id="Layer_1-2" data-name="Layer 1"><rect class="cls-1" width="53.23" height="53.23"/><g id="PLQsj4.tif"><path d="M48,4.3c.74,10.72.12,21.1-5.66,30.53a40.46,40.46,0,0,1-14.76,14,1.54,1.54,0,0,1-1.29,0C15.5,42.62,8.82,33.53,6.39,21.3,5.27,15.67,5.9,10,5.66,4.3ZM6.48,5.1c.25,5.48-.37,10.83.72,16.18a38.42,38.42,0,0,0,18.89,26.5,1.3,1.3,0,0,0,1.64,0A89.43,89.43,0,0,0,35.37,42c7.81-7.29,11.5-16.51,11.92-27.09.11-2.83,0-5.67,0-8.51,0-.42,0-.85-.07-1.31Z"/><path d="M27.68,39.23l-.6-16.87-.46,0c-.1,1.78-.22,3.56-.28,5.34s-.05,3.81-.06,5.72,0,3.7,0,5.9c-4.88-4.12-7.44-8.9-7-15.1a20.21,20.21,0,0,1,7.59-14.5c.85,1,1.77,2.17,2.73,3.27,5,5.73,6.67,14,3.21,20.42a33.6,33.6,0,0,1-3.74,4.88A6.7,6.7,0,0,1,27.68,39.23Z"/><path d="M27,43.38c-.13-1.11-.28-2.21-.35-3.32,0-.14.4-.32.76-.58v3.79Z"/></g></g></g></svg>