<svg xmlns="http://www.w3.org/2000/svg" viewBox="0 0 53.23 53.23"><defs><style>.cls-1{fill:none;}.cls-2{fill:#7f41c2;}</style></defs><title>icn_redux</title><g id="Layer_2" data-name="Layer 2"><g id="Layer_1-2" data-name="Layer 1"><rect class="cls-1" width="53.23" height="53.23"/><g id="eIlnva.tif"><path class="cls-2" d="M26.7,6.71l.82.12a9.22,9.22,0,0,1,4.58,2,12.73,12.73,0,0,1,4.16,6.29A17,17,0,0,1,37,19.35l-.23-.05c-.69-.21-1.37-.43-2.06-.63a.27.27,0,0,1-.23-.27A12.56,12.56,0,0,0,31,11,5.76,5.76,0,0,0,26.7,9.17a8.7,8.7,0,0,0-6.35,2.67,11.91,11.91,0,0,0-2.54,4.54,16.09,16.09,0,0,0-.72,3.91,19.09,19.09,0,0,0,1.63,9.26c.29.64.63,1.26,1,1.87a.4.4,0,0,0,.31.18,2.86,2.86,0,1,1-2.57,2.89,3.67,3.67,0,0,1,.28-1.25.61.61,0,0,0,0-.57,23.57,23.57,0,0,1-2.5-6.24,21,21,0,0,1-.53-3.54,18.8,18.8,0,0,1,1.58-9,11.94,11.94,0,0,1,6.18-6.3,9.35,9.35,0,0,1,3.36-.81,2.46,2.46,0,0,0,.34-.06Z"/><path class="cls-2" d="M12.38,24.85c.12.46.22.88.33,1.29s.16.65.27,1a.39.39,0,0,1-.16.5,12.5,12.5,0,0,0-3.23,3.91,7.92,7.92,0,0,0-1,3.7,7.32,7.32,0,0,0,5.11,7.07,11.93,11.93,0,0,0,4.28.4,17.06,17.06,0,0,0,8.33-3.24A17.24,17.24,0,0,0,32,33.3a.58.58,0,0,0,0-.75,2.84,2.84,0,1,1,2.79,1.11.56.56,0,0,0-.31.28,21.08,21.08,0,0,1-2.86,4.28A19.75,19.75,0,0,1,22,44.29a20.16,20.16,0,0,1-3.37.73A11.86,11.86,0,0,1,9.74,42.8a8.25,8.25,0,0,1-3-5.06A11.59,11.59,0,0,1,9.39,27.6,15.85,15.85,0,0,1,12.1,25Z"/><path class="cls-2" d="M29.45,43.64,31,42.41c.18-.15.35-.31.54-.45a.38.38,0,0,1,.3-.06,13.23,13.23,0,0,0,3.75,1,8.1,8.1,0,0,0,6.23-1.64,7.34,7.34,0,0,0,2.73-4.71,7.85,7.85,0,0,0-.68-4.24A14.41,14.41,0,0,0,38,25.61a19.1,19.1,0,0,0-7.75-2.82c-1.1-.14-2.23-.12-3.34-.17a.47.47,0,0,0-.48.29,2.85,2.85,0,0,1-5.32-1,2.85,2.85,0,0,1,5.13-2.08.7.7,0,0,0,.68.34,22.83,22.83,0,0,1,8.93,1.56A19.18,19.18,0,0,1,45,29.25a11.79,11.79,0,0,1,1.81,4.85,8.75,8.75,0,0,1-1.41,6.64,10.84,10.84,0,0,1-5.58,3.9,12.1,12.1,0,0,1-3.93.59,15.45,15.45,0,0,1-6.33-1.49Z"/></g></g></g></svg>