<svg xmlns="http://www.w3.org/2000/svg" viewBox="0 0 53.23 53.23"><defs><style>.cls-1{fill:none;}</style></defs><title>icn_node-bw</title><g id="Layer_2" data-name="Layer 2"><g id="Layer_1-2" data-name="Layer 1"><rect class="cls-1" width="53.23" height="53.23"/><g id="rdnKvm.tif"><path d="M19.93,43.14c1-.42,1.78-.83,2.63-1.14.21-.08.55.1.79.24,1,.59,2.07,1.19,3.07,1.83a1.24,1.24,0,0,0,1.46,0q6.59-3.82,13.2-7.61a15.3,15.3,0,0,1,1.5-.84,1.5,1.5,0,0,0,.94-1.57q0-8.45,0-16.9a1.47,1.47,0,0,0-.86-1.41q-7.42-4.24-14.8-8.54a1.18,1.18,0,0,0-1.34,0q-7.5,4.36-15,8.67a1.13,1.13,0,0,0-.65,1.1q0,8.68,0,17.36a1.08,1.08,0,0,0,.59,1.07c1.3.74,2.59,1.53,3.89,2.27a4.4,4.4,0,0,0,1,.42,2.29,2.29,0,0,0,3.07-2.34q0-8.42,0-16.83c0-1.08,0-1.09,1.11-1.08,1.65,0,1.5-.17,1.5,1.48q0,8.22,0,16.44a7.79,7.79,0,0,1-.12,1.71c-.61,2.67-2.5,3.56-5.15,3.29A8.3,8.3,0,0,1,14,39.86c-1.4-.7-2.74-1.53-4.08-2.33a3.12,3.12,0,0,1-1.64-2.84q0-9,0-18.09A3.13,3.13,0,0,1,10,13.73C15,10.82,20.07,7.94,25.09,5A3.76,3.76,0,0,1,29.2,5c5.06,2.94,10.13,5.85,15.19,8.78A3,3,0,0,1,46,16.46q0,9.18,0,18.36a3.31,3.31,0,0,1-2,3c-3.11,1.76-6.21,3.55-9.31,5.33q-2.81,1.62-5.62,3.25a3.51,3.51,0,0,1-3.87,0c-1.53-.93-3.08-1.82-4.62-2.73C20.4,43.48,20.22,43.33,19.93,43.14Z"/><path d="M31.85,34.6a37.33,37.33,0,0,1-4.15-.74,4.84,4.84,0,0,1-3.85-4.44c-.07-.8,0-1,.81-1h.13c.48,0,1.06-.13,1.42.09s.36.78.51,1.21A2.94,2.94,0,0,0,29,31.68a12.78,12.78,0,0,0,5.71,0,2.37,2.37,0,0,0,2.11-2.28,1.36,1.36,0,0,0-.93-1.51c-1.29-.36-2.6-.65-3.91-.9-1.49-.29-3-.43-4.49-.78a3.71,3.71,0,0,1-3.12-3.35,4.3,4.3,0,0,1,2.28-4.55,9.85,9.85,0,0,1,5.73-1,14.18,14.18,0,0,1,3.37.63,4.8,4.8,0,0,1,3.3,4.52.66.66,0,0,1-.42.5,10.06,10.06,0,0,1-1.78,0,.63.63,0,0,1-.45-.38,3.31,3.31,0,0,0-3.46-2.71,23.13,23.13,0,0,0-4.07.25,2.24,2.24,0,0,0-1.37,1,1.51,1.51,0,0,0,1,2.42c1.33.31,2.69.46,4,.73a31.86,31.86,0,0,1,4.5,1,4.24,4.24,0,0,1,1.5,7,6.87,6.87,0,0,1-4.13,1.89c-.83.12-1.67.14-2.51.2Z"/></g></g></g></svg>