<svg xmlns="http://www.w3.org/2000/svg" viewBox="0 0 26 26"><defs><style>.cls-1{fill:none;}</style></defs><title>icn_document</title><g id="Layer_2" data-name="Layer 2"><g id="Layer_1-2" data-name="Layer 1"><rect class="cls-1" width="26" height="26"/><path d="M17,11.22H9.36a.31.31,0,1,0,0,.61H17a.31.31,0,1,0,0-.61Z"/><path d="M9.36,9.39h3.06a.31.31,0,1,0,0-.61H9.36a.31.31,0,0,0,0,.61Z"/><path d="M17,13.67H9.36a.31.31,0,1,0,0,.61H17a.31.31,0,1,0,0-.61Z"/><path d="M17,16.12H9.36a.31.31,0,1,0,0,.61H17a.31.31,0,1,0,0-.61Z"/><path d="M17,18.56H9.36a.31.31,0,0,0,0,.61H17a.31.31,0,0,0,0-.61Z"/><path d="M15.91,4.5H6V22.84H20.37V9Zm.18,1,3.24,3.24H16.09ZM6.61,22.23V5.11h8.86V9.39h4.28V22.23Z"/></g></g></svg>