<svg xmlns="http://www.w3.org/2000/svg" viewBox="0 0 26 26"><defs><style>.cls-1{fill:none;}</style></defs><title>icn_github</title><g id="Layer_2" data-name="Layer 2"><g id="Layer_1-2" data-name="Layer 1"><rect class="cls-1" width="26" height="26"/><path d="M20,9.57a8.17,8.17,0,0,0-3-3,8.26,8.26,0,0,0-8.24,0,8.17,8.17,0,0,0-3,3,8,8,0,0,0-1.1,4.12,8,8,0,0,0,1.57,4.83,8,8,0,0,0,4,3,.48.48,0,0,0,.43-.07.42.42,0,0,0,.14-.32s0-.21,0-.58,0-.68,0-1l-.25,0a3.14,3.14,0,0,1-.59,0,4.52,4.52,0,0,1-.74-.07,1.66,1.66,0,0,1-.72-.32,1.36,1.36,0,0,1-.47-.66L8,18.34a2.67,2.67,0,0,0-.34-.55,1.29,1.29,0,0,0-.46-.41l-.07-.05A.78.78,0,0,1,7,17.21a.59.59,0,0,1-.1-.15s0-.09.05-.12a.69.69,0,0,1,.31,0l.21,0a1.56,1.56,0,0,1,.53.26,1.73,1.73,0,0,1,.52.56,1.88,1.88,0,0,0,.59.67,1.26,1.26,0,0,0,.7.23,3,3,0,0,0,.61-.05,2.13,2.13,0,0,0,.48-.16,1.73,1.73,0,0,1,.52-1.1,7.32,7.32,0,0,1-1.1-.19,4.36,4.36,0,0,1-1-.42A2.88,2.88,0,0,1,8.45,16a3.44,3.44,0,0,1-.56-1.12,5.34,5.34,0,0,1-.22-1.6,3.12,3.12,0,0,1,.84-2.2,2.87,2.87,0,0,1,.07-2.18A1.5,1.5,0,0,1,9.51,9a6.43,6.43,0,0,1,.89.41l.45.29a7.72,7.72,0,0,1,4.1,0l.41-.26a5.75,5.75,0,0,1,1-.47,1.4,1.4,0,0,1,.87-.12,2.85,2.85,0,0,1,.09,2.18,3.12,3.12,0,0,1,.84,2.2,5.4,5.4,0,0,1-.22,1.61A3.31,3.31,0,0,1,17.36,16a3,3,0,0,1-.87.71,4.37,4.37,0,0,1-1,.42,7.31,7.31,0,0,1-1.1.19,1.9,1.9,0,0,1,.56,1.52v2.26a.43.43,0,0,0,.13.32.46.46,0,0,0,.42.07,8.21,8.21,0,0,0,5.61-7.79A8,8,0,0,0,20,9.57Z"/></g></g></svg>