<svg xmlns="http://www.w3.org/2000/svg" viewBox="0 0 49 49"><defs><style>.cls-1{fill:none;stroke:#000;stroke-miterlimit:10;}</style></defs><title>logo</title><g id="Layer_2" data-name="Layer 2"><g id="Layer_1-2" data-name="Layer 1"><rect class="cls-1" x="0.5" y="0.5" width="48" height="48"/><path d="M26.25,36.92a.68.68,0,0,1-.77.77,4.7,4.7,0,0,1-3.42-1.08A4.62,4.62,0,0,1,21,33.2V27.25H19.58a.77.77,0,0,1,0-1.54H21v-2.4a.77.77,0,0,1,1.54,0v2.4h3a.77.77,0,0,1,0,1.54h-3V33.2A4.59,4.59,0,0,0,22.78,35a1.67,1.67,0,0,0,.92.9,4.69,4.69,0,0,0,1.78.27A.68.68,0,0,1,26.25,36.92Z"/><path d="M40,26.83a4.73,4.73,0,0,1,1.12,3.47v2.8A4.73,4.73,0,0,1,40,36.57a4.73,4.73,0,0,1-3.47,1.11H31.43v4.19a.77.77,0,1,1-1.54,0V26.48a.77.77,0,0,1,1.54,0v.79a5,5,0,0,1,4.14-1.56h.94A4.73,4.73,0,0,1,40,26.83Zm-.42,3.47a3.32,3.32,0,0,0-.67-2.39,3.37,3.37,0,0,0-2.38-.66h-.94a6.68,6.68,0,0,0-3,.56,1.89,1.89,0,0,0-1.15,1.67v6.66H36.5a3.37,3.37,0,0,0,2.38-.66,3.32,3.32,0,0,0,.67-2.39Z"/></g></g></svg>