<svg xmlns="http://www.w3.org/2000/svg" viewBox="0 0 206.7 206.16"><defs><style>.cls-1{fill:#f2f2f2;}.cls-2,.cls-3,.cls-4,.cls-5{fill:none;}.cls-10,.cls-2,.cls-3,.cls-4,.cls-5{stroke:#000;stroke-miterlimit:10;}.cls-2,.cls-3,.cls-4{stroke-width:0.25px;}.cls-3{stroke-dasharray:10.34 10.34;}.cls-4{stroke-dasharray:10.31 10.31;}.cls-10,.cls-5{stroke-width:0.25px;}.cls-10,.cls-6{fill:#fff;}.cls-7,.cls-8{font-size:5px;}.cls-7{font-family:Helvetica, Helvetica;}.cls-8,.cls-9{font-family:Helvetica-Bold, Helvetica;font-weight:700;}.cls-9{font-size:19.7px;}</style></defs><title>square_dbrad07</title><g id="Layer_2" data-name="Layer 2"><g id="Layer_1-2" data-name="Layer 1"><rect class="cls-1" x="0.12" y="0.12" width="206.45" height="205.92"/><polyline class="cls-2" points="206.57 201.04 206.57 206.04 201.57 206.04"/><line class="cls-3" x1="191.23" y1="206.04" x2="10.29" y2="206.04"/><polyline class="cls-2" points="5.12 206.04 0.12 206.04 0.12 201.04"/><line class="cls-4" x1="0.12" y1="190.73" x2="0.12" y2="10.28"/><polyline class="cls-2" points="0.12 5.12 0.12 0.12 5.12 0.12"/><line class="cls-3" x1="15.46" y1="0.12" x2="196.4" y2="0.12"/><polyline class="cls-2" points="201.57 0.12 206.57 0.12 206.57 5.12"/><line class="cls-4" x1="206.57" y1="15.44" x2="206.57" y2="195.88"/><line class="cls-5" x1="205.72" y1="61.49" x2="1.01" y2="61.49"/><line class="cls-5" x1="205.7" y1="123.47" x2="1" y2="123.47"/><line class="cls-5" x1="205.7" y1="185.45" x2="1" y2="185.45"/><rect class="cls-6" x="129.42" y="0.86" width="76.3" height="204.71"/><text class="cls-7" transform="translate(137.93 109.55)">Lorem ipsum dolor sit amet, <tspan x="0" y="6">consectetuer adipiscing elit, </tspan><tspan x="0" y="12">sed diam nonummy nibh </tspan><tspan x="0" y="18">euismod tincidunt ut laoreet </tspan><tspan x="0" y="24">dolore magna aliquam erat </tspan><tspan x="0" y="30">volutpat. Ut wisi enim ad </tspan><tspan x="0" y="36">minim veniam, quis nostrud </tspan><tspan x="0" y="42">exerci tation ullamcorper </tspan><tspan x="0" y="48">suscipit lobortis nisl ut aliquip </tspan><tspan x="0" y="54">ex ea commodo consequat. </tspan><tspan x="0" y="60">Duis autem vel eum iriure </tspan><tspan x="0" y="66">dolor in hendrerit in vulputate </tspan><tspan x="0" y="72">velit esse molestie consequat, </tspan><tspan x="0" y="78">vel illum dolore eu feugiat </tspan></text><line class="cls-5" x1="137.93" y1="100.02" x2="201.37" y2="100.02"/><text class="cls-7" transform="translate(162.2 94.08)">Lorem ipsum</text><text class="cls-8" transform="translate(162.2 87.08)">Lorem ipsum</text><text class="cls-9" transform="translate(135.64 95.91)">42</text><line class="cls-5" x1="54.46" y1="0.86" x2="54.46" y2="205.56"/><line class="cls-5" x1="116.46" y1="0.86" x2="116.46" y2="205.56"/><polyline class="cls-10" points="205.72 78.9 137.93 78.9 137.93 20.42 205.72 20.42"/><polygon class="cls-10" points="182.58 50.78 163.59 39.82 163.59 61.74 182.58 50.78"/></g></g></svg>