<svg xmlns="http://www.w3.org/2000/svg" viewBox="0 0 206.7 206.16"><defs><style>.cls-1{fill:#f2f2f2;}.cls-10,.cls-11,.cls-2,.cls-3,.cls-4,.cls-8{fill:none;}.cls-10,.cls-2,.cls-3,.cls-4,.cls-8{stroke:#000;stroke-miterlimit:10;}.cls-2,.cls-3,.cls-4{stroke-width:0.25px;}.cls-3{stroke-dasharray:10.34 10.34;}.cls-4{stroke-dasharray:10.31 10.31;}.cls-5{fill:#fff;}.cls-6{font-size:9.29px;fill:#040202;}.cls-6,.cls-7,.cls-9{font-family:Helvetica, Helvetica;}.cls-7{font-size:7.29px;fill:#1a1a1a;}.cls-9{font-size:5px;}.cls-10{stroke-width:0.25px;}</style></defs><title>square_mxlist</title><g id="Layer_2" data-name="Layer 2"><g id="Layer_1-2" data-name="Layer 1"><rect class="cls-1" x="0.12" y="0.12" width="206.45" height="205.92"/><polyline class="cls-2" points="206.57 201.04 206.57 206.04 201.57 206.04"/><line class="cls-3" x1="191.23" y1="206.04" x2="10.29" y2="206.04"/><polyline class="cls-2" points="5.12 206.04 0.12 206.04 0.12 201.04"/><line class="cls-4" x1="0.12" y1="190.73" x2="0.12" y2="10.28"/><polyline class="cls-2" points="0.12 5.12 0.12 0.12 5.12 0.12"/><line class="cls-3" x1="15.46" y1="0.12" x2="196.4" y2="0.12"/><polyline class="cls-2" points="201.57 0.12 206.57 0.12 206.57 5.12"/><line class="cls-4" x1="206.57" y1="15.44" x2="206.57" y2="195.88"/><rect class="cls-1" x="0.12" y="0.12" width="206.45" height="205.92"/><polyline class="cls-2" points="206.57 201.04 206.57 206.04 201.57 206.04"/><line class="cls-3" x1="191.23" y1="206.04" x2="10.29" y2="206.04"/><polyline class="cls-2" points="5.12 206.04 0.12 206.04 0.12 201.04"/><line class="cls-4" x1="0.12" y1="190.73" x2="0.12" y2="10.28"/><polyline class="cls-2" points="0.12 5.12 0.12 0.12 5.12 0.12"/><line class="cls-3" x1="15.46" y1="0.12" x2="196.4" y2="0.12"/><polyline class="cls-2" points="201.57 0.12 206.57 0.12 206.57 5.12"/><line class="cls-4" x1="206.57" y1="15.44" x2="206.57" y2="195.88"/><rect class="cls-5" x="1.21" y="20.42" width="204.66" height="185.15"/><text class="cls-6" transform="translate(8.34 14.58)">MX List</text><text class="cls-7" transform="translate(20.63 39.6)">New Playlist</text><line class="cls-8" x1="14.3" y1="32.38" x2="14.3" y2="40.59"/><line class="cls-8" x1="10.2" y1="36.48" x2="18.41" y2="36.48"/><text class="cls-9" transform="translate(43.13 60.81)">Lorem ipsum dolor sit <tspan x="2.64" y="6">amet, consectetuer </tspan></text><rect class="cls-10" x="30" y="53.26" width="73.7" height="34.53"/><rect class="cls-10" x="33.27" y="55.5" width="67.52" height="14.09"/><rect class="cls-10" x="50.79" y="70.53" width="32.81" height="9.19" rx="4.6" ry="4.6"/><path class="cls-10" d="M25.88,48.8v53.41h81.26V48.8ZM27.65,52a1.24,1.24,0,1,1,1.24,1.24A1.24,1.24,0,0,1,27.65,52Zm2.85,48a1.85,1.85,0,1,1,1.85-1.85A1.85,1.85,0,0,1,30.49,100Zm16.8,0a1.85,1.85,0,1,1,1.85-1.85A1.85,1.85,0,0,1,47.29,100Zm8.87-1.27a1.22,1.22,0,1,1,1.22-1.22A1.22,1.22,0,0,1,56.16,98.74ZM55.94,78.9a3.78,3.78,0,1,1,3.78-3.78A3.78,3.78,0,0,1,55.94,78.9ZM67.33,95a1.33,1.33,0,1,1,1.33-1.33A1.33,1.33,0,0,1,67.33,95Zm11.21,3.66a1.16,1.16,0,1,1,1.16-1.16A1.16,1.16,0,0,1,78.54,98.63ZM78.8,78.9a3.78,3.78,0,1,1,3.78-3.78A3.78,3.78,0,0,1,78.8,78.9ZM87,100.62a2.16,2.16,0,1,1,2.16-2.16A2.16,2.16,0,0,1,87,100.62Zm16.14-1.33a1.49,1.49,0,1,1,1.49-1.49A1.49,1.49,0,0,1,103.18,99.3Zm1.76-46A1.24,1.24,0,1,1,106.19,52,1.24,1.24,0,0,1,104.95,53.26Z"/><text class="cls-9" transform="translate(43.47 127.09)">Lorem ipsum dolor sit <tspan x="2.64" y="6">amet, consectetuer </tspan></text><rect class="cls-10" x="30.34" y="119.54" width="73.7" height="34.53"/><rect class="cls-10" x="33.61" y="121.78" width="67.52" height="14.09"/><rect class="cls-10" x="51.13" y="136.81" width="32.81" height="9.19" rx="4.6" ry="4.6"/><path class="cls-10" d="M26.22,115.08v53.41h81.26V115.08ZM28,118.3a1.24,1.24,0,1,1,1.24,1.24A1.24,1.24,0,0,1,28,118.3Zm2.85,48a1.85,1.85,0,1,1,1.85-1.85A1.85,1.85,0,0,1,30.84,166.3Zm16.8,0a1.85,1.85,0,1,1,1.85-1.85A1.85,1.85,0,0,1,47.63,166.3ZM56.5,165a1.22,1.22,0,1,1,1.22-1.22A1.22,1.22,0,0,1,56.5,165Zm-.22-19.84a3.78,3.78,0,1,1,3.78-3.78A3.78,3.78,0,0,1,56.29,145.19Zm11.38,16.07A1.33,1.33,0,1,1,69,159.93,1.33,1.33,0,0,1,67.67,161.26Zm11.21,3.66A1.16,1.16,0,1,1,80,163.75,1.16,1.16,0,0,1,78.88,164.92Zm.26-19.73a3.78,3.78,0,1,1,3.78-3.78A3.78,3.78,0,0,1,79.14,145.19Zm8.25,21.72a2.16,2.16,0,1,1,2.16-2.16A2.16,2.16,0,0,1,87.39,166.9Zm16.14-1.33a1.49,1.49,0,1,1,1.49-1.49A1.49,1.49,0,0,1,103.53,165.58Zm1.76-46a1.24,1.24,0,1,1,1.24-1.24A1.24,1.24,0,0,1,105.29,119.54Z"/><circle class="cls-11" cx="157.34" cy="164.45" r="1.85"/><circle class="cls-11" cx="174.13" cy="164.45" r="1.85"/><circle class="cls-11" cx="183" cy="163.81" r="1.22"/><circle class="cls-11" cx="193.83" cy="93.65" r="1.33"/><path class="cls-11" d="M204.22,163.75a1.16,1.16,0,0,0,1.16,1.16,1.1,1.1,0,0,0,.22,0v-2.23a1.1,1.1,0,0,0-.22,0A1.16,1.16,0,0,0,204.22,163.75Z"/><circle class="cls-11" cx="194.17" cy="159.93" r="1.33"/><circle class="cls-11" cx="155.73" cy="118.3" r="1.24"/><circle class="cls-11" cx="173.79" cy="98.16" r="1.85"/><circle class="cls-11" cx="182.66" cy="97.53" r="1.22"/><circle class="cls-11" cx="156.99" cy="98.16" r="1.85"/><path class="cls-11" d="M203.88,97.47A1.16,1.16,0,0,0,205,98.63a1.13,1.13,0,0,0,.56-.17v-2a1.13,1.13,0,0,0-.56-.17A1.16,1.16,0,0,0,203.88,97.47Z"/><circle class="cls-11" cx="155.39" cy="52.02" r="1.24"/><path class="cls-5" d="M206.54,163.75a1.14,1.14,0,0,0-.94-1.12v2.23A1.14,1.14,0,0,0,206.54,163.75Z"/><path class="cls-5" d="M206.2,97.47a1.15,1.15,0,0,0-.6-1v2A1.15,1.15,0,0,0,206.2,97.47Z"/><circle class="cls-10" cx="182.44" cy="75.12" r="3.78"/><path class="cls-10" d="M201.52,75.12a3.78,3.78,0,0,0,3.78,3.78c.1,0,.2,0,.3,0v-7.5c-.1,0-.2,0-.3,0A3.78,3.78,0,0,0,201.52,75.12Z"/><path class="cls-10" d="M205,98.63a1.16,1.16,0,1,1,0-2.32,1.13,1.13,0,0,1,.56.17V87.8H156.5V53.26h49.1V48.8H152.38v53.41H205.6V98.47A1.13,1.13,0,0,1,205,98.63ZM154.15,52a1.24,1.24,0,1,1,1.24,1.24A1.24,1.24,0,0,1,154.15,52ZM157,100a1.85,1.85,0,1,1,1.85-1.85A1.85,1.85,0,0,1,157,100Zm16.8,0a1.85,1.85,0,1,1,1.85-1.85A1.85,1.85,0,0,1,173.79,100Zm8.87-1.27a1.22,1.22,0,1,1,1.22-1.22A1.22,1.22,0,0,1,182.66,98.74ZM193.83,95a1.33,1.33,0,1,1,1.33-1.33A1.33,1.33,0,0,1,193.83,95Z"/><path class="cls-10" d="M156.5,87.8h49.1V79.71H181.88a4.6,4.6,0,0,1,0-9.19H205.6v-1H159.76V55.5H205.6V53.26H156.5Z"/><path class="cls-10" d="M205.3,78.9a3.78,3.78,0,1,1,0-7.56c.1,0,.2,0,.3,0v-.84H181.88a4.6,4.6,0,0,0,0,9.19H205.6v-.84C205.5,78.88,205.4,78.9,205.3,78.9Zm-22.86,0a3.78,3.78,0,1,1,3.78-3.78A3.78,3.78,0,0,1,182.44,78.9Z"/><path class="cls-10" d="M201.86,141.41a3.78,3.78,0,0,0,3.74,3.78v-7.55A3.78,3.78,0,0,0,201.86,141.41Z"/><circle class="cls-10" cx="182.79" cy="141.41" r="3.78"/><path class="cls-10" d="M205.38,164.92a1.16,1.16,0,1,1,0-2.32,1.1,1.1,0,0,1,.22,0v-8.56H156.84V119.54H205.6v-4.47H152.72v53.41H205.6v-3.62A1.1,1.1,0,0,1,205.38,164.92ZM154.49,118.3a1.24,1.24,0,1,1,1.24,1.24A1.24,1.24,0,0,1,154.49,118.3Zm2.85,48a1.85,1.85,0,1,1,1.85-1.85A1.85,1.85,0,0,1,157.34,166.3Zm16.8,0a1.85,1.85,0,1,1,1.85-1.85A1.85,1.85,0,0,1,174.13,166.3ZM183,165a1.22,1.22,0,1,1,1.22-1.22A1.22,1.22,0,0,1,183,165Zm11.17-3.77a1.33,1.33,0,1,1,1.33-1.33A1.33,1.33,0,0,1,194.17,161.26Z"/><path class="cls-10" d="M156.84,154.08H205.6V146H182.23a4.6,4.6,0,0,1,0-9.19H205.6v-.94H160.11V121.78H205.6v-2.23H156.84Z"/><path class="cls-5" d="M205.7,131.12s-.07-.07-.1-.1v.56h.22A1.14,1.14,0,0,0,205.7,131.12Z"/><path class="cls-10" d="M201.86,141.41a3.78,3.78,0,0,1,3.74-3.78v-.82H182.23a4.6,4.6,0,0,0,0,9.19H205.6v-.82A3.78,3.78,0,0,1,201.86,141.41Zm-19.08,3.78a3.78,3.78,0,1,1,3.78-3.78A3.78,3.78,0,0,1,182.79,145.19Z"/><line class="cls-10" x1="1.21" y1="20.42" x2="201.82" y2="20.42"/><polygon points="170.96 123.48 170.48 123.48 170.48 127.07 172.76 127.07 172.76 126.64 170.96 126.64 170.96 123.48"/><path d="M174.24,124.38a1.11,1.11,0,0,0-.89.39,1.56,1.56,0,0,0-.33,1,1.45,1.45,0,0,0,.31,1,1.07,1.07,0,0,0,.85.36,1.1,1.1,0,0,0,.95-.41,1.71,1.71,0,0,0,.31-1,1.32,1.32,0,0,0-.35-1A1.17,1.17,0,0,0,174.24,124.38Zm.58,2.07a.6.6,0,0,1-.59.33.63.63,0,0,1-.57-.28,1.25,1.25,0,0,1-.18-.7,1.43,1.43,0,0,1,.18-.74.62.62,0,0,1,.58-.31.65.65,0,0,1,.63.36,1.32,1.32,0,0,1,.12.59A1.66,1.66,0,0,1,174.82,126.45Z"/><path d="M176.43,125.56a.75.75,0,0,1,.18-.49.63.63,0,0,1,.51-.21h.14v-.46h-.14a.65.65,0,0,0-.46.19,1,1,0,0,0-.25.32v-.45H176v2.62h.44Z"/><path d="M179.24,126.55a.69.69,0,0,1-.54.23.62.62,0,0,1-.54-.24,1.13,1.13,0,0,1-.19-.64h1.9a3,3,0,0,0,0-.58,1.17,1.17,0,0,0-.17-.46,1,1,0,0,0-.4-.34,1.19,1.19,0,0,0-.54-.13,1.12,1.12,0,0,0-.89.39,1.51,1.51,0,0,0-.34,1,1.38,1.38,0,0,0,.34,1,1.09,1.09,0,0,0,.82.36,1.48,1.48,0,0,0,.36,0,1,1,0,0,0,.49-.26,1.16,1.16,0,0,0,.22-.29.94.94,0,0,0,.11-.32h-.43A.77.77,0,0,1,179.24,126.55Zm-1-1.56a.66.66,0,0,1,.5-.22.63.63,0,0,1,.6.32,1.14,1.14,0,0,1,.12.46H178A.83.83,0,0,1,178.19,125Z"/><path d="M183.12,124.39a.91.91,0,0,0-.79.41.79.79,0,0,0-.2-.26.78.78,0,0,0-.5-.15.85.85,0,0,0-.49.15,1.5,1.5,0,0,0-.28.28v-.37h-.43v2.62h.44v-1.39a1,1,0,0,1,.2-.7.64.64,0,0,1,.45-.19.39.39,0,0,1,.37.18.88.88,0,0,1,.06.39v1.71h.45v-1.52a.76.76,0,0,1,.19-.58.63.63,0,0,1,.45-.17.52.52,0,0,1,.32.1.42.42,0,0,1,.13.36v1.82h.46v-1.74a1.25,1.25,0,0,0-.1-.55A.73.73,0,0,0,183.12,124.39Z"/><rect x="185.98" y="124.46" width="0.45" height="2.6"/><rect x="185.98" y="123.48" width="0.45" height="0.5"/><path d="M187.49,126.77a1.13,1.13,0,0,0,.26.25.9.9,0,0,0,.5.13,1,1,0,0,0,.66-.23,1.49,1.49,0,0,0,.45-1.22,1.39,1.39,0,0,0-.31-1,1,1,0,0,0-.76-.34.93.93,0,0,0-.52.15,1,1,0,0,0-.29.28v-.35h-.43v3.65h.44Zm.07-1.54a.66.66,0,0,1,1.25,0,1.43,1.43,0,0,1,.09.54,1.23,1.23,0,0,1-.2.77.67.67,0,0,1-1.14-.15,1.3,1.3,0,0,1-.09-.51A1.8,1.8,0,0,1,187.57,125.23Z"/><path d="M191,125.56l-.3-.07a1,1,0,0,1-.29-.11.31.31,0,0,1-.17-.27.29.29,0,0,1,.13-.25.65.65,0,0,1,.39-.09.7.7,0,0,1,.54.17.49.49,0,0,1,.11.27h.42a.74.74,0,0,0-.16-.47,1,1,0,0,0-.86-.35,1.09,1.09,0,0,0-.73.23.75.75,0,0,0-.27.6.55.55,0,0,0,.29.49,1.78,1.78,0,0,0,.5.19l.35.09a1.78,1.78,0,0,1,.38.12.28.28,0,0,1,.15.26.35.35,0,0,1-.19.33.89.89,0,0,1-.44.11.71.71,0,0,1-.59-.21.63.63,0,0,1-.11-.34h-.42a1,1,0,0,0,.26.66,1.11,1.11,0,0,0,.84.26,1.15,1.15,0,0,0,.82-.25.8.8,0,0,0,.27-.6.59.59,0,0,0-.26-.53A2.32,2.32,0,0,0,191,125.56Z"/><path d="M194,125.74a1.67,1.67,0,0,1-.09.6.6.6,0,0,1-.61.41.43.43,0,0,1-.43-.23.75.75,0,0,1-.06-.33v-1.74h-.45v1.78a1.14,1.14,0,0,0,.11.54.77.77,0,0,0,.75.37.91.91,0,0,0,.6-.21.87.87,0,0,0,.21-.25v.39h.42v-2.62H194Z"/><path d="M198.08,124.89a.42.42,0,0,1,.13.36v1.82h.46v-1.74a1.25,1.25,0,0,0-.1-.55.73.73,0,0,0-.72-.38.91.91,0,0,0-.79.41.79.79,0,0,0-.2-.26.78.78,0,0,0-.5-.15.85.85,0,0,0-.49.15,1.5,1.5,0,0,0-.28.28v-.37h-.43v2.62h.44v-1.39a1,1,0,0,1,.2-.7.64.64,0,0,1,.45-.19.39.39,0,0,1,.37.18.88.88,0,0,1,.06.39v1.71h.45v-1.52a.76.76,0,0,1,.19-.58.63.63,0,0,1,.45-.17A.52.52,0,0,1,198.08,124.89Z"/><path d="M202.83,127.07v-3.6h-.42v1.32a1.17,1.17,0,0,0-.26-.26.92.92,0,0,0-.5-.13,1,1,0,0,0-.83.42,1.7,1.7,0,0,0-.29,1,1.44,1.44,0,0,0,.32,1,1,1,0,0,0,.75.37,1,1,0,0,0,.48-.11,1,1,0,0,0,.36-.35v.36Zm-.6-.55a.6.6,0,0,1-.5.26.62.62,0,0,1-.57-.28,1.3,1.3,0,0,1-.18-.7,1.17,1.17,0,0,1,.21-.75.65.65,0,0,1,.54-.25.63.63,0,0,1,.5.24,1.12,1.12,0,0,1,.2.73A1.25,1.25,0,0,1,202.23,126.51Z"/><path d="M204.48,127.16a1.1,1.1,0,0,0,.95-.41,1.71,1.71,0,0,0,.31-1,1.32,1.32,0,0,0-.35-1,1.17,1.17,0,0,0-.85-.34,1.11,1.11,0,0,0-.89.39,1.56,1.56,0,0,0-.33,1,1.45,1.45,0,0,0,.31,1A1.07,1.07,0,0,0,204.48,127.16Zm-.53-2.09a.62.62,0,0,1,.58-.31.65.65,0,0,1,.63.36,1.32,1.32,0,0,1,.12.59,1.66,1.66,0,0,1-.16.74.6.6,0,0,1-.59.33.63.63,0,0,1-.57-.28,1.25,1.25,0,0,1-.18-.7A1.43,1.43,0,0,1,203.94,125.07Z"/><path d="M175.26,132.77a.14.14,0,0,1-.12,0,.19.19,0,0,1,0-.11v-1.51a.6.6,0,0,0-.29-.55,1.42,1.42,0,0,0-.75-.18,1.28,1.28,0,0,0-.7.19.76.76,0,0,0-.31.67h.41a.61.61,0,0,1,.1-.31.58.58,0,0,1,.49-.19.85.85,0,0,1,.46.1.36.36,0,0,1,.16.33.39.39,0,0,1,0,.17.24.24,0,0,1-.2.13l-.7.09a1.08,1.08,0,0,0-.6.25.71.71,0,0,0-.23.56.73.73,0,0,0,.23.55.82.82,0,0,0,.59.22,1.19,1.19,0,0,0,.55-.13,1.12,1.12,0,0,0,.39-.31.62.62,0,0,0,.08.24.36.36,0,0,0,.33.16h.15l.16,0v-.32h-.14Zm-.59-.68a.6.6,0,0,1-.37.58,1,1,0,0,1-.45.11.52.52,0,0,1-.33-.11.36.36,0,0,1-.14-.3.39.39,0,0,1,.2-.37,1,1,0,0,1,.36-.1l.27,0,.25,0a.75.75,0,0,0,.21-.09Z"/><path d="M178.53,130.39a.91.91,0,0,0-.79.41.79.79,0,0,0-.2-.26.78.78,0,0,0-.5-.15.85.85,0,0,0-.49.15,1.5,1.5,0,0,0-.28.28v-.37h-.43v2.62h.44v-1.39a1,1,0,0,1,.2-.7.64.64,0,0,1,.45-.19.39.39,0,0,1,.37.18.88.88,0,0,1,.06.39v1.71h.45v-1.52A.76.76,0,0,1,178,131a.63.63,0,0,1,.45-.17.52.52,0,0,1,.32.1.42.42,0,0,1,.13.36v1.82h.46v-1.74a1.25,1.25,0,0,0-.1-.55A.73.73,0,0,0,178.53,130.39Z"/><path d="M182.19,131.32a1.17,1.17,0,0,0-.17-.46,1,1,0,0,0-.4-.34,1.18,1.18,0,0,0-.54-.13,1.12,1.12,0,0,0-.89.39,1.51,1.51,0,0,0-.34,1,1.39,1.39,0,0,0,.34,1,1.09,1.09,0,0,0,.82.36,1.47,1.47,0,0,0,.36,0,1,1,0,0,0,.49-.26,1.16,1.16,0,0,0,.21-.29.9.9,0,0,0,.11-.32h-.43a.79.79,0,0,1-.16.31.69.69,0,0,1-.55.23.62.62,0,0,1-.54-.24,1.14,1.14,0,0,1-.19-.64h1.9A3.07,3.07,0,0,0,182.19,131.32Zm-1.85.23a.83.83,0,0,1,.22-.56.66.66,0,0,1,.5-.22.63.63,0,0,1,.6.32,1.14,1.14,0,0,1,.12.46Z"/><path d="M183.31,129.72h-.44v.73h-.35v.36h.35v1.73a.7.7,0,0,0,.11.41.48.48,0,0,0,.42.16h.18l.16,0v-.35h-.15a.4.4,0,0,1-.17,0,.18.18,0,0,1-.09-.18v-1.71h.42v-.36h-.42Z"/><path d="M184.26,133.07h.27v0s0,0,0,0a.67.67,0,0,1,0,.21.31.31,0,0,1-.24.24v.23a.53.53,0,0,0,.41-.27,1.07,1.07,0,0,0,.12-.51v-.49h-.52Z"/><path d="M188,130.77a.56.56,0,0,1,.45.16.79.79,0,0,1,.18.4H189a1,1,0,0,0-.33-.74,1.14,1.14,0,0,0-.72-.21,1.08,1.08,0,0,0-.85.38,1.58,1.58,0,0,0-.33,1.07,1.44,1.44,0,0,0,.3.94,1,1,0,0,0,.82.38,1,1,0,0,0,1.12-1h-.43a.91.91,0,0,1-.22.46.64.64,0,0,1-1-.1,1.22,1.22,0,0,1-.17-.66,1.62,1.62,0,0,1,.12-.66A.62.62,0,0,1,188,130.77Z"/><path d="M190.49,130.38a1.11,1.11,0,0,0-.89.39,1.56,1.56,0,0,0-.33,1,1.45,1.45,0,0,0,.31,1,1.07,1.07,0,0,0,.85.36,1.1,1.1,0,0,0,.95-.41,1.71,1.71,0,0,0,.31-1,1.32,1.32,0,0,0-.35-1A1.17,1.17,0,0,0,190.49,130.38Zm.58,2.07a.6.6,0,0,1-.59.33.63.63,0,0,1-.57-.28,1.25,1.25,0,0,1-.18-.7,1.43,1.43,0,0,1,.18-.74.62.62,0,0,1,.58-.31.65.65,0,0,1,.63.36,1.32,1.32,0,0,1,.12.59A1.66,1.66,0,0,1,191.07,132.45Z"/><path d="M193.5,130.39a1,1,0,0,0-.46.1,1.17,1.17,0,0,0-.39.33v-.37h-.42v2.62h.44V131.7a1.76,1.76,0,0,1,0-.39.64.64,0,0,1,.14-.27.66.66,0,0,1,.32-.21.85.85,0,0,1,.26,0,.43.43,0,0,1,.42.24.88.88,0,0,1,.07.38v1.65h.45v-1.68a1.37,1.37,0,0,0-.11-.61A.76.76,0,0,0,193.5,130.39Z"/><path d="M196.13,131.56l-.3-.07a1,1,0,0,1-.29-.11.31.31,0,0,1-.17-.27.3.3,0,0,1,.13-.25.65.65,0,0,1,.39-.09.7.7,0,0,1,.54.17.49.49,0,0,1,.11.27h.42a.75.75,0,0,0-.16-.47,1,1,0,0,0-.86-.35,1.09,1.09,0,0,0-.73.23.75.75,0,0,0-.27.6.55.55,0,0,0,.29.49,1.76,1.76,0,0,0,.5.19l.35.09a1.79,1.79,0,0,1,.38.12.28.28,0,0,1,.15.26.35.35,0,0,1-.19.33.89.89,0,0,1-.44.11.71.71,0,0,1-.59-.21.63.63,0,0,1-.11-.34h-.42a1,1,0,0,0,.26.66,1.1,1.1,0,0,0,.84.26,1.15,1.15,0,0,0,.82-.25.8.8,0,0,0,.27-.6.59.59,0,0,0-.26-.53A2.32,2.32,0,0,0,196.13,131.56Z"/><path d="M199.7,131.32a1.17,1.17,0,0,0-.17-.46,1,1,0,0,0-.4-.34,1.18,1.18,0,0,0-.54-.13,1.12,1.12,0,0,0-.89.39,1.51,1.51,0,0,0-.34,1,1.39,1.39,0,0,0,.34,1,1.09,1.09,0,0,0,.82.36,1.47,1.47,0,0,0,.36,0,1,1,0,0,0,.49-.26,1.16,1.16,0,0,0,.21-.29.9.9,0,0,0,.11-.32h-.43a.79.79,0,0,1-.16.31.69.69,0,0,1-.55.23.62.62,0,0,1-.54-.24,1.14,1.14,0,0,1-.19-.64h1.9A3.07,3.07,0,0,0,199.7,131.32Zm-1.85.23a.83.83,0,0,1,.22-.56.66.66,0,0,1,.5-.22.63.63,0,0,1,.6.32,1.14,1.14,0,0,1,.12.46Z"/><path d="M201.3,130.77a.56.56,0,0,1,.45.16.79.79,0,0,1,.18.4h.43a1,1,0,0,0-.33-.74,1.14,1.14,0,0,0-.72-.21,1.08,1.08,0,0,0-.85.38,1.57,1.57,0,0,0-.33,1.07,1.43,1.43,0,0,0,.31.94,1,1,0,0,0,.82.38,1,1,0,0,0,1.12-1h-.43a.91.91,0,0,1-.22.46.64.64,0,0,1-1-.1,1.23,1.23,0,0,1-.17-.66,1.62,1.62,0,0,1,.12-.66A.62.62,0,0,1,201.3,130.77Z"/><path d="M203.32,129.72h-.44v.73h-.35v.36h.35v1.73a.7.7,0,0,0,.11.41.48.48,0,0,0,.42.16h.18l.16,0v-.35h-.15a.4.4,0,0,1-.17,0,.18.18,0,0,1-.09-.18v-1.71h.42v-.36h-.42Z"/><path d="M205.8,130.52a1.18,1.18,0,0,0-.54-.13,1.12,1.12,0,0,0-.89.39,1.51,1.51,0,0,0-.34,1,1.39,1.39,0,0,0,.34,1,1.09,1.09,0,0,0,.82.36,1.47,1.47,0,0,0,.36,0,1,1,0,0,0,.49-.26l0,0v-.57h-.14a.79.79,0,0,1-.16.31.69.69,0,0,1-.55.23.62.62,0,0,1-.54-.24,1.14,1.14,0,0,1-.19-.64h1.57v-1.17A1.06,1.06,0,0,0,205.8,130.52Zm-1.28,1a.83.83,0,0,1,.22-.56.66.66,0,0,1,.5-.22.63.63,0,0,1,.6.32,1.14,1.14,0,0,1,.12.46Z"/><polygon points="170.95 57.74 170.47 57.74 170.47 61.33 172.75 61.33 172.75 60.9 170.95 60.9 170.95 57.74"/><path d="M174.23,58.63a1.11,1.11,0,0,0-.89.39,1.56,1.56,0,0,0-.33,1,1.45,1.45,0,0,0,.31,1,1.07,1.07,0,0,0,.85.36,1.1,1.1,0,0,0,.95-.41,1.71,1.71,0,0,0,.31-1,1.32,1.32,0,0,0-.35-1A1.17,1.17,0,0,0,174.23,58.63Zm.58,2.07a.6.6,0,0,1-.59.33.63.63,0,0,1-.57-.28,1.25,1.25,0,0,1-.18-.7,1.43,1.43,0,0,1,.18-.74.62.62,0,0,1,.58-.31.65.65,0,0,1,.63.36A1.32,1.32,0,0,1,175,60,1.66,1.66,0,0,1,174.81,60.71Z"/><path d="M176.42,59.82a.75.75,0,0,1,.18-.49.63.63,0,0,1,.51-.21h.14v-.46h-.14a.65.65,0,0,0-.46.19,1,1,0,0,0-.25.32v-.45H176v2.62h.44Z"/><path d="M179.23,60.81a.69.69,0,0,1-.54.23.62.62,0,0,1-.54-.24,1.13,1.13,0,0,1-.19-.64h1.9a3,3,0,0,0,0-.58,1.17,1.17,0,0,0-.17-.46,1,1,0,0,0-.4-.34,1.19,1.19,0,0,0-.54-.13,1.12,1.12,0,0,0-.89.39,1.51,1.51,0,0,0-.34,1,1.38,1.38,0,0,0,.34,1,1.09,1.09,0,0,0,.82.36,1.48,1.48,0,0,0,.36,0,1,1,0,0,0,.49-.26,1.16,1.16,0,0,0,.22-.29.94.94,0,0,0,.11-.32h-.43A.77.77,0,0,1,179.23,60.81Zm-1-1.56a.66.66,0,0,1,.5-.22.63.63,0,0,1,.6.32,1.14,1.14,0,0,1,.12.46H178A.83.83,0,0,1,178.18,59.25Z"/><path d="M183.11,58.65a.91.91,0,0,0-.79.41.79.79,0,0,0-.2-.26.78.78,0,0,0-.5-.15.85.85,0,0,0-.49.15,1.5,1.5,0,0,0-.28.28v-.37h-.43v2.62h.44V59.94a1,1,0,0,1,.2-.7.64.64,0,0,1,.45-.19.39.39,0,0,1,.37.18.88.88,0,0,1,.06.39v1.71h.45V59.8a.76.76,0,0,1,.19-.58.63.63,0,0,1,.45-.17.52.52,0,0,1,.32.1.42.42,0,0,1,.13.36v1.82h.46V59.58a1.25,1.25,0,0,0-.1-.55A.73.73,0,0,0,183.11,58.65Z"/><rect x="185.97" y="58.72" width="0.45" height="2.6"/><rect x="185.97" y="57.74" width="0.45" height="0.5"/><path d="M187.48,61a1.13,1.13,0,0,0,.26.25.9.9,0,0,0,.5.13,1,1,0,0,0,.66-.23,1.49,1.49,0,0,0,.45-1.22,1.39,1.39,0,0,0-.31-1,1,1,0,0,0-.76-.34.93.93,0,0,0-.52.15,1,1,0,0,0-.29.28v-.35H187v3.65h.44Zm.07-1.54a.66.66,0,0,1,1.25,0,1.43,1.43,0,0,1,.09.54,1.23,1.23,0,0,1-.2.77.67.67,0,0,1-1.14-.15,1.3,1.3,0,0,1-.09-.51A1.8,1.8,0,0,1,187.56,59.49Z"/><path d="M191,59.82l-.3-.07a1,1,0,0,1-.29-.11.31.31,0,0,1-.17-.27.29.29,0,0,1,.13-.25.65.65,0,0,1,.39-.09.7.7,0,0,1,.54.17.49.49,0,0,1,.11.27h.42a.74.74,0,0,0-.16-.47,1,1,0,0,0-.86-.35,1.09,1.09,0,0,0-.73.23.75.75,0,0,0-.27.6.55.55,0,0,0,.29.49,1.78,1.78,0,0,0,.5.19l.35.09a1.78,1.78,0,0,1,.38.12.28.28,0,0,1,.15.26.35.35,0,0,1-.19.33.89.89,0,0,1-.44.11.71.71,0,0,1-.59-.21.63.63,0,0,1-.11-.34h-.42a1,1,0,0,0,.26.66,1.11,1.11,0,0,0,.84.26,1.15,1.15,0,0,0,.82-.25.8.8,0,0,0,.27-.6.59.59,0,0,0-.26-.53A2.32,2.32,0,0,0,191,59.82Z"/><path d="M194,60a1.67,1.67,0,0,1-.09.6.6.6,0,0,1-.61.41.43.43,0,0,1-.43-.23.75.75,0,0,1-.06-.33V58.71h-.45v1.78a1.14,1.14,0,0,0,.11.54.77.77,0,0,0,.75.37.91.91,0,0,0,.6-.21.87.87,0,0,0,.21-.25v.39h.42V58.71H194Z"/><path d="M198.07,59.15a.42.42,0,0,1,.13.36v1.82h.46V59.58a1.25,1.25,0,0,0-.1-.55.73.73,0,0,0-.72-.38.91.91,0,0,0-.79.41.79.79,0,0,0-.2-.26.78.78,0,0,0-.5-.15.85.85,0,0,0-.49.15,1.5,1.5,0,0,0-.28.28v-.37h-.43v2.62h.44V59.94a1,1,0,0,1,.2-.7.64.64,0,0,1,.45-.19.39.39,0,0,1,.37.18.88.88,0,0,1,.06.39v1.71h.45V59.8a.76.76,0,0,1,.19-.58.63.63,0,0,1,.45-.17A.52.52,0,0,1,198.07,59.15Z"/><path d="M202.82,61.32v-3.6h-.42V59a1.17,1.17,0,0,0-.26-.26.92.92,0,0,0-.5-.13,1,1,0,0,0-.83.42,1.7,1.7,0,0,0-.29,1,1.44,1.44,0,0,0,.32,1,1,1,0,0,0,.75.37,1,1,0,0,0,.48-.11,1,1,0,0,0,.36-.35v.36Zm-.6-.55a.6.6,0,0,1-.5.26.62.62,0,0,1-.57-.28A1.3,1.3,0,0,1,201,60a1.17,1.17,0,0,1,.21-.75.65.65,0,0,1,.54-.25.63.63,0,0,1,.5.24,1.12,1.12,0,0,1,.2.73A1.25,1.25,0,0,1,202.22,60.77Z"/><path d="M204.46,61.42a1.1,1.1,0,0,0,.95-.41,1.71,1.71,0,0,0,.31-1,1.32,1.32,0,0,0-.35-1,1.17,1.17,0,0,0-.85-.34,1.11,1.11,0,0,0-.89.39,1.56,1.56,0,0,0-.33,1,1.45,1.45,0,0,0,.31,1A1.07,1.07,0,0,0,204.46,61.42Zm-.53-2.09a.62.62,0,0,1,.58-.31.65.65,0,0,1,.63.36,1.32,1.32,0,0,1,.12.59,1.66,1.66,0,0,1-.16.74.6.6,0,0,1-.59.33.63.63,0,0,1-.57-.28,1.25,1.25,0,0,1-.18-.7A1.43,1.43,0,0,1,203.93,59.32Z"/><path d="M175.25,67a.14.14,0,0,1-.12,0,.19.19,0,0,1,0-.11V65.37a.6.6,0,0,0-.29-.55,1.42,1.42,0,0,0-.75-.18,1.28,1.28,0,0,0-.7.19.76.76,0,0,0-.31.67h.41a.61.61,0,0,1,.1-.31.58.58,0,0,1,.49-.19.85.85,0,0,1,.46.1.36.36,0,0,1,.16.33.39.39,0,0,1,0,.17.24.24,0,0,1-.2.13l-.7.09a1.08,1.08,0,0,0-.6.25.71.71,0,0,0-.23.56.73.73,0,0,0,.23.55.82.82,0,0,0,.59.22,1.19,1.19,0,0,0,.55-.13,1.12,1.12,0,0,0,.39-.31.62.62,0,0,0,.08.24.36.36,0,0,0,.33.16h.15l.16,0V67h-.14Zm-.59-.68a.6.6,0,0,1-.37.58,1,1,0,0,1-.45.11.52.52,0,0,1-.33-.11.36.36,0,0,1-.14-.3.39.39,0,0,1,.2-.37,1,1,0,0,1,.36-.1l.27,0,.25,0a.75.75,0,0,0,.21-.09Z"/><path d="M178.52,64.65a.91.91,0,0,0-.79.41.79.79,0,0,0-.2-.26.78.78,0,0,0-.5-.15.85.85,0,0,0-.49.15,1.5,1.5,0,0,0-.28.28v-.37h-.43v2.62h.44V65.94a1,1,0,0,1,.2-.7.64.64,0,0,1,.45-.19.39.39,0,0,1,.37.18.88.88,0,0,1,.06.39v1.71h.45V65.8a.76.76,0,0,1,.19-.58.63.63,0,0,1,.45-.17.52.52,0,0,1,.32.1.42.42,0,0,1,.13.36v1.82h.46V65.58a1.25,1.25,0,0,0-.1-.55A.73.73,0,0,0,178.52,64.65Z"/><path d="M182.18,65.58a1.17,1.17,0,0,0-.17-.46,1,1,0,0,0-.4-.34,1.18,1.18,0,0,0-.54-.13,1.12,1.12,0,0,0-.89.39,1.51,1.51,0,0,0-.34,1,1.39,1.39,0,0,0,.34,1,1.09,1.09,0,0,0,.82.36,1.47,1.47,0,0,0,.36,0,1,1,0,0,0,.49-.26,1.16,1.16,0,0,0,.21-.29.9.9,0,0,0,.11-.32h-.43a.79.79,0,0,1-.16.31A.69.69,0,0,1,181,67a.62.62,0,0,1-.54-.24,1.14,1.14,0,0,1-.19-.64h1.9A3.07,3.07,0,0,0,182.18,65.58Zm-1.85.23a.83.83,0,0,1,.22-.56A.66.66,0,0,1,181,65a.63.63,0,0,1,.6.32,1.14,1.14,0,0,1,.12.46Z"/><path d="M183.3,64h-.44v.73h-.35v.36h.35V66.8a.7.7,0,0,0,.11.41.48.48,0,0,0,.42.16h.18l.16,0V67h-.15a.4.4,0,0,1-.17,0,.18.18,0,0,1-.09-.18V65.07h.42v-.36h-.42Z"/><path d="M184.25,67.32h.27v0s0,0,0,0a.67.67,0,0,1,0,.21.31.31,0,0,1-.24.24v.23a.53.53,0,0,0,.41-.27,1.07,1.07,0,0,0,.12-.51v-.49h-.52Z"/><path d="M187.95,65a.56.56,0,0,1,.45.16.79.79,0,0,1,.18.4H189a1,1,0,0,0-.33-.74,1.14,1.14,0,0,0-.72-.21,1.08,1.08,0,0,0-.85.38,1.58,1.58,0,0,0-.33,1.07,1.44,1.44,0,0,0,.3.94,1,1,0,0,0,.82.38,1,1,0,0,0,1.12-1h-.43a.91.91,0,0,1-.22.46.64.64,0,0,1-1-.1,1.22,1.22,0,0,1-.17-.66,1.62,1.62,0,0,1,.12-.66A.62.62,0,0,1,187.95,65Z"/><path d="M190.48,64.63a1.11,1.11,0,0,0-.89.39,1.56,1.56,0,0,0-.33,1,1.45,1.45,0,0,0,.31,1,1.07,1.07,0,0,0,.85.36,1.1,1.1,0,0,0,.95-.41,1.71,1.71,0,0,0,.31-1,1.32,1.32,0,0,0-.35-1A1.17,1.17,0,0,0,190.48,64.63Zm.58,2.07a.6.6,0,0,1-.59.33.63.63,0,0,1-.57-.28,1.25,1.25,0,0,1-.18-.7,1.43,1.43,0,0,1,.18-.74.62.62,0,0,1,.58-.31.65.65,0,0,1,.63.36,1.32,1.32,0,0,1,.12.59A1.66,1.66,0,0,1,191.06,66.71Z"/><path d="M193.49,64.65a1,1,0,0,0-.46.1,1.17,1.17,0,0,0-.39.33v-.37h-.42v2.62h.44V66a1.76,1.76,0,0,1,0-.39.64.64,0,0,1,.14-.27.66.66,0,0,1,.32-.21.85.85,0,0,1,.26,0,.43.43,0,0,1,.42.24.88.88,0,0,1,.07.38v1.65h.45V65.65a1.37,1.37,0,0,0-.11-.61A.76.76,0,0,0,193.49,64.65Z"/><path d="M196.12,65.82l-.3-.07a1,1,0,0,1-.29-.11.31.31,0,0,1-.17-.27.3.3,0,0,1,.13-.25.65.65,0,0,1,.39-.09.7.7,0,0,1,.54.17.49.49,0,0,1,.11.27h.42a.75.75,0,0,0-.16-.47,1,1,0,0,0-.86-.35,1.09,1.09,0,0,0-.73.23.75.75,0,0,0-.27.6.55.55,0,0,0,.29.49,1.76,1.76,0,0,0,.5.19l.35.09a1.79,1.79,0,0,1,.38.12.28.28,0,0,1,.15.26.35.35,0,0,1-.19.33.89.89,0,0,1-.44.11.71.71,0,0,1-.59-.21.63.63,0,0,1-.11-.34h-.42a1,1,0,0,0,.26.66,1.1,1.1,0,0,0,.84.26,1.15,1.15,0,0,0,.82-.25.8.8,0,0,0,.27-.6.59.59,0,0,0-.26-.53A2.32,2.32,0,0,0,196.12,65.82Z"/><path d="M199.69,65.58a1.17,1.17,0,0,0-.17-.46,1,1,0,0,0-.4-.34,1.18,1.18,0,0,0-.54-.13,1.12,1.12,0,0,0-.89.39,1.51,1.51,0,0,0-.34,1,1.39,1.39,0,0,0,.34,1,1.09,1.09,0,0,0,.82.36,1.47,1.47,0,0,0,.36,0,1,1,0,0,0,.49-.26,1.16,1.16,0,0,0,.21-.29.9.9,0,0,0,.11-.32h-.43a.79.79,0,0,1-.16.31.69.69,0,0,1-.55.23.62.62,0,0,1-.54-.24,1.14,1.14,0,0,1-.19-.64h1.9A3.07,3.07,0,0,0,199.69,65.58Zm-1.85.23a.83.83,0,0,1,.22-.56.66.66,0,0,1,.5-.22.63.63,0,0,1,.6.32,1.14,1.14,0,0,1,.12.46Z"/><path d="M201.29,65a.56.56,0,0,1,.45.16.79.79,0,0,1,.18.4h.43a1,1,0,0,0-.33-.74,1.14,1.14,0,0,0-.72-.21,1.08,1.08,0,0,0-.85.38,1.57,1.57,0,0,0-.33,1.07,1.43,1.43,0,0,0,.31.94,1,1,0,0,0,.82.38,1,1,0,0,0,1.12-1h-.43a.91.91,0,0,1-.22.46.64.64,0,0,1-1-.1,1.23,1.23,0,0,1-.17-.66,1.62,1.62,0,0,1,.12-.66A.62.62,0,0,1,201.29,65Z"/><path d="M203.31,64h-.44v.73h-.35v.36h.35V66.8a.7.7,0,0,0,.11.41.48.48,0,0,0,.42.16h.18l.16,0V67h-.15a.4.4,0,0,1-.17,0,.18.18,0,0,1-.09-.18V65.07h.42v-.36h-.42Z"/><path d="M205.79,64.78a1.18,1.18,0,0,0-.54-.13,1.12,1.12,0,0,0-.89.39,1.51,1.51,0,0,0-.34,1,1.39,1.39,0,0,0,.34,1,1.09,1.09,0,0,0,.82.36,1.47,1.47,0,0,0,.36,0,1,1,0,0,0,.49-.26l0,0V66.5h-.14a.79.79,0,0,1-.16.31.69.69,0,0,1-.55.23.62.62,0,0,1-.54-.24,1.14,1.14,0,0,1-.19-.64h1.57V65A1.06,1.06,0,0,0,205.79,64.78Zm-1.28,1a.83.83,0,0,1,.22-.56.66.66,0,0,1,.5-.22.63.63,0,0,1,.6.32,1.14,1.14,0,0,1,.12.46Z"/></g></g></svg>