<svg xmlns="http://www.w3.org/2000/svg" viewBox="0 0 206.7 206.16"><defs><style>.cls-1{fill:#f2f2f2;}.cls-2,.cls-3,.cls-4{fill:none;stroke-width:0.25px;}.cls-2,.cls-3,.cls-4,.cls-5,.cls-6,.cls-7{stroke:#000;stroke-miterlimit:10;}.cls-3{stroke-dasharray:10.34 10.34;}.cls-4{stroke-dasharray:10.31 10.31;}.cls-5,.cls-7{fill:#fff;}.cls-5{stroke-width:0.19px;}.cls-6{fill:#dbdbdb;}.cls-6,.cls-7{stroke-width:0.19px;}.cls-8{font-size:10.35px;font-family:Helvetica-Bold, Helvetica;}.cls-9{font-weight:700;}.cls-10{font-size:7.05px;font-family:Helvetica, Helvetica;}</style></defs><title>square_sd</title><g id="Layer_2" data-name="Layer 2"><g id="Layer_1-2" data-name="Layer 1"><rect class="cls-1" x="0.12" y="0.12" width="206.45" height="205.92"/><polyline class="cls-2" points="206.57 201.04 206.57 206.04 201.57 206.04"/><line class="cls-3" x1="191.23" y1="206.04" x2="10.29" y2="206.04"/><polyline class="cls-2" points="5.12 206.04 0.12 206.04 0.12 201.04"/><line class="cls-4" x1="0.12" y1="190.73" x2="0.12" y2="10.28"/><polyline class="cls-2" points="0.12 5.12 0.12 0.12 5.12 0.12"/><line class="cls-3" x1="15.46" y1="0.12" x2="196.4" y2="0.12"/><polyline class="cls-2" points="201.57 0.12 206.57 0.12 206.57 5.12"/><line class="cls-4" x1="206.57" y1="15.44" x2="206.57" y2="195.88"/><polygon class="cls-5" points="143.46 136.6 93.15 147.16 24.81 62.77 77.92 59 143.46 136.6"/><path class="cls-6" d="M97.92,100.8c4.58,5.4,2.58,9.78-4.48,9.78S77,106.2,72.38,100.8,69.8,91,76.86,91,93.34,95.4,97.92,100.8Z"/><path class="cls-7" d="M70.65,83.71c-12.33,0-15.84,7.65-7.83,17.09s24.5,17.09,36.83,17.09,15.84-7.65,7.83-17.09S83,83.71,70.65,83.71m4.22,5c8.74,0,20.43,5.42,26.11,12.12s3.19,12.12-5.55,12.12S75,107.49,69.32,100.8s-3.19-12.12,5.55-12.12"/><path class="cls-7" d="M70.65,83.71l4.22,5c8.74,0,20.43,5.42,26.11,12.12s3.19,12.12-5.55,12.12S75,107.49,69.32,100.8h-6.5c8,9.44,24.5,17.09,36.83,17.09s15.84-7.65,7.83-17.09S83,83.71,70.65,83.71Z"/><path class="cls-6" d="M74.87,88.69l-4.22-5c-12.33,0-15.84,7.65-7.83,17.09h6.5C63.65,94.11,66.13,88.69,74.87,88.69Z"/><path d="M37.93,69.39l.43,0,1.94,2,1.58-.11.26.27-2,.14Z"/><path d="M42.73,69.9a2.48,2.48,0,0,1,.91.61,1,1,0,0,1,.37.68q0,.28-.58.32a2.11,2.11,0,0,1-1-.18,2.66,2.66,0,0,1-.88-.6q-.4-.42-.35-.68t.54-.3A2.26,2.26,0,0,1,42.73,69.9ZM43.56,71a1.19,1.19,0,0,0-.31-.48,2.13,2.13,0,0,0-.47-.37A1.36,1.36,0,0,0,42,70c-.23,0-.34.09-.32.23a1,1,0,0,0,.3.48,2.16,2.16,0,0,0,.59.43,1.29,1.29,0,0,0,.67.14C43.5,71.24,43.6,71.16,43.56,71Z"/><path d="M43.36,69.68l.37,0,.28.29a.27.27,0,0,1,0-.22c0-.09.14-.14.29-.15h.13l.29.29h-.13c-.19,0-.3.07-.32.17a.39.39,0,0,0,.15.32l.92,1-.38,0Z"/><path d="M46.27,69.53a2.38,2.38,0,0,1,.55.19,2.32,2.32,0,0,1,.44.28,4.19,4.19,0,0,1,.39.36L46,70.48a2,2,0,0,0,.56.39,1.24,1.24,0,0,0,.62.12c.2,0,.31-.07.34-.18a.29.29,0,0,0,0-.2l.38,0a.48.48,0,0,1,.1.21.32.32,0,0,1,0,.2.37.37,0,0,1-.27.2,1.27,1.27,0,0,1-.29,0,2.16,2.16,0,0,1-.94-.18,2.58,2.58,0,0,1-.91-.61q-.39-.4-.33-.67t.54-.3A2,2,0,0,1,46.27,69.53Zm.77.64a2,2,0,0,0-.39-.28,1.3,1.3,0,0,0-.72-.17q-.26,0-.31.17c0,.1,0,.22.15.36Z"/><path d="M47.24,69.41l.38,0,.23.24a.35.35,0,0,1,.08-.19.49.49,0,0,1,.34-.12,1.39,1.39,0,0,1,.54.07,1.91,1.91,0,0,1,.33.15.25.25,0,0,1,.11-.22.67.67,0,0,1,.33-.09,1.5,1.5,0,0,1,.86.2,2,2,0,0,1,.43.34l1.07,1.1-.4,0-1.12-1.15a.8.8,0,0,0-.34-.22.92.92,0,0,0-.34,0c-.15,0-.25.06-.28.14s0,.21.19.38l.93,1-.39,0-1-1.08a1.36,1.36,0,0,0-.29-.24.78.78,0,0,0-.44-.09.29.29,0,0,0-.28.15c0,.09,0,.24.25.45l.85.88-.39,0Z"/><path d="M51.51,68.47l.39,0,.31.31-.39,0Zm.6.62.39,0,1.6,1.65-.39,0Z"/><path d="M53.06,69l.38,0,.21.22a.27.27,0,0,1,.08-.19.56.56,0,0,1,.37-.12,2,2,0,0,1,.87.17,2.56,2.56,0,0,1,.87.6q.52.54.36.8a.54.54,0,0,1-.44.19,1.57,1.57,0,0,1-.51-.05,2.89,2.89,0,0,1-.39-.14l.82.84-.39,0Zm2.71,1.2q0-.17-.29-.5a2.23,2.23,0,0,0-.41-.33,1.34,1.34,0,0,0-.82-.24q-.4,0-.27.33a1.52,1.52,0,0,0,.3.4,2.05,2.05,0,0,0,.4.32,1.33,1.33,0,0,0,.8.22C55.66,70.41,55.75,70.34,55.77,70.23Z"/><path d="M56.85,70a1.19,1.19,0,0,0,.31.21,1.35,1.35,0,0,0,.65.1.58.58,0,0,0,.32-.09c.07-.05.06-.13,0-.22a.6.6,0,0,0-.29-.15l-.41-.06-.36,0a3.31,3.31,0,0,1-.55-.09,1.17,1.17,0,0,1-.56-.29c-.15-.16-.2-.29-.13-.4s.23-.17.5-.19a2,2,0,0,1,1,.17,1.37,1.37,0,0,1,.43.29l-.36,0a1,1,0,0,0-.26-.16,1.28,1.28,0,0,0-.58-.08.43.43,0,0,0-.28.08s0,.1,0,.17a.66.66,0,0,0,.32.16l.32.05.3,0a4.48,4.48,0,0,1,.7.1,1.2,1.2,0,0,1,.55.32q.21.22.14.4t-.56.21a2,2,0,0,1-.9-.12,2,2,0,0,1-.63-.4Z"/><path d="M58.1,68.68l1.07,1.1a1.2,1.2,0,0,0,.26.2.89.89,0,0,0,.52.12q.39,0,.28-.3a1.37,1.37,0,0,0-.29-.39l-.79-.81.38,0,1.61,1.65-.36,0L60.53,70a.23.23,0,0,1,0,.17.49.49,0,0,1-.4.17,1.57,1.57,0,0,1-.88-.19,1.85,1.85,0,0,1-.42-.33L57.7,68.7Z"/><path d="M60.15,68.54l.38,0,.23.24a.35.35,0,0,1,.08-.19.49.49,0,0,1,.34-.12,1.39,1.39,0,0,1,.54.07,1.91,1.91,0,0,1,.33.15.25.25,0,0,1,.11-.22.67.67,0,0,1,.33-.09,1.5,1.5,0,0,1,.86.2,2,2,0,0,1,.43.34L64.84,70l-.4,0-1.12-1.15a.8.8,0,0,0-.34-.22.92.92,0,0,0-.34,0c-.15,0-.25.06-.28.14s0,.21.19.38l.93,1-.39,0-1-1.08a1.36,1.36,0,0,0-.29-.24.78.78,0,0,0-.44-.09.29.29,0,0,0-.28.15c0,.09,0,.24.25.45l.85.88-.39,0Z"/><path d="M66.32,68.17a2.89,2.89,0,0,1,.39.15l-.81-.83.37,0,2.21,2.28-.35,0-.22-.23a.25.25,0,0,1-.1.24.72.72,0,0,1-.35.1,2,2,0,0,1-.89-.19,2.66,2.66,0,0,1-.88-.6,1,1,0,0,1-.35-.64q0-.28.47-.31A1.55,1.55,0,0,1,66.32,68.17Zm.35,1.3a1.27,1.27,0,0,0,.67.15c.18,0,.27-.08.28-.2s-.09-.28-.29-.49a2,2,0,0,0-.63-.45,1.28,1.28,0,0,0-.58-.12c-.19,0-.3.08-.31.19s.08.28.28.49A2.26,2.26,0,0,0,66.67,69.47Z"/><path d="M69.27,68.1a2.48,2.48,0,0,1,.91.61,1,1,0,0,1,.37.68q0,.28-.58.32a2.11,2.11,0,0,1-1-.18,2.66,2.66,0,0,1-.88-.6q-.4-.42-.35-.68t.54-.3A2.26,2.26,0,0,1,69.27,68.1Zm.83,1.12a1.19,1.19,0,0,0-.31-.48,2.13,2.13,0,0,0-.47-.37,1.36,1.36,0,0,0-.78-.19c-.23,0-.34.09-.32.23a1,1,0,0,0,.3.48,2.16,2.16,0,0,0,.59.43,1.29,1.29,0,0,0,.67.14C70,69.44,70.14,69.36,70.1,69.21Z"/><path d="M69.3,67.26l.38,0,2.2,2.27-.38,0Z"/><path d="M72.68,67.86a2.48,2.48,0,0,1,.91.61,1,1,0,0,1,.37.68q0,.28-.58.32a2.11,2.11,0,0,1-1-.18,2.66,2.66,0,0,1-.88-.6q-.4-.42-.35-.68t.54-.3A2.26,2.26,0,0,1,72.68,67.86ZM73.51,69a1.18,1.18,0,0,0-.31-.48,2.13,2.13,0,0,0-.47-.37,1.36,1.36,0,0,0-.78-.19c-.23,0-.34.09-.32.23a1,1,0,0,0,.3.48,2.15,2.15,0,0,0,.59.43,1.29,1.29,0,0,0,.67.14C73.45,69.21,73.56,69.13,73.51,69Z"/><path d="M73.31,67.65l.37,0,.28.29a.27.27,0,0,1,0-.22c0-.09.13-.14.29-.15h.13l.29.29h-.13c-.19,0-.3.07-.32.17a.39.39,0,0,0,.15.32l.92,1-.39,0Z"/><path d="M77.31,68.58a1.19,1.19,0,0,0,.31.21,1.35,1.35,0,0,0,.65.1.58.58,0,0,0,.32-.09c.07-.05.06-.13,0-.22a.6.6,0,0,0-.29-.15l-.41-.06-.36,0a3.31,3.31,0,0,1-.55-.09,1.17,1.17,0,0,1-.55-.29c-.15-.16-.2-.29-.13-.4s.23-.17.5-.19a2,2,0,0,1,1,.17,1.37,1.37,0,0,1,.43.29l-.36,0a1,1,0,0,0-.26-.16,1.28,1.28,0,0,0-.58-.08.43.43,0,0,0-.28.08s0,.1,0,.17A.66.66,0,0,0,77,68l.32.05.3,0a4.48,4.48,0,0,1,.7.1,1.2,1.2,0,0,1,.55.32q.21.22.14.4t-.56.21a2,2,0,0,1-.9-.12,2,2,0,0,1-.63-.4Z"/><path d="M77.57,66.7l.39,0,.31.31-.39,0Zm.6.62.39,0,1.6,1.65-.39,0Z"/><path d="M78.77,66.78l.39,0,.45.46.37,0,.22.23-.37,0,1,1.08a.38.38,0,0,0,.19.11h.3l.21.22-.12,0-.15,0a.91.91,0,0,1-.46-.07,1.24,1.24,0,0,1-.35-.25l-1.06-1.09-.31,0-.22-.23.31,0Z"/><text class="cls-8" transform="matrix(0.99, -0.14, 0.75, 0.67, 97.33, 142.6)"><tspan class="cls-9">15</tspan><tspan class="cls-10" x="11.51" y="0">/25</tspan></text></g></g></svg>