<svg xmlns="http://www.w3.org/2000/svg" viewBox="0 0 206.7 206.16"><defs><style>.cls-1{fill:#f2f2f2;}.cls-2,.cls-3,.cls-4,.cls-8{fill:none;}.cls-2,.cls-3,.cls-4,.cls-5,.cls-6{stroke:#000;stroke-miterlimit:10;}.cls-2,.cls-3,.cls-4{stroke-width:0.25px;}.cls-3{stroke-dasharray:10.34 10.34;}.cls-4{stroke-dasharray:10.31 10.31;}.cls-5{fill:#fff;}.cls-5,.cls-6{stroke-width:0.23px;}.cls-6{fill:#d6d8d6;}.cls-7{font-size:12px;font-family:Helvetica, Helvetica;}</style></defs><title>square_dp</title><g id="Layer_2" data-name="Layer 2"><g id="Layer_1-2" data-name="Layer 1"><rect class="cls-1" x="0.12" y="0.12" width="206.45" height="205.92"/><polyline class="cls-2" points="206.57 201.04 206.57 206.04 201.57 206.04"/><line class="cls-3" x1="191.23" y1="206.04" x2="10.29" y2="206.04"/><polyline class="cls-2" points="5.12 206.04 0.12 206.04 0.12 201.04"/><line class="cls-4" x1="0.12" y1="190.73" x2="0.12" y2="10.28"/><polyline class="cls-2" points="0.12 5.12 0.12 0.12 5.12 0.12"/><line class="cls-3" x1="15.46" y1="0.12" x2="196.4" y2="0.12"/><polyline class="cls-2" points="201.57 0.12 206.57 0.12 206.57 5.12"/><line class="cls-4" x1="206.57" y1="15.44" x2="206.57" y2="195.88"/><polygon class="cls-5" points="128.33 167.76 59.71 165.76 59.71 39.2 128.33 49.2 128.33 167.76"/><path class="cls-5" d="M94.06,64.69c-16.64,0-30.12,16-30.12,35.68S77.42,136,94.06,136s30.12-16,30.12-35.68S110.7,64.69,94.06,64.69Zm0,65.55c-13.93,0-25.22-13.37-25.22-29.87S80.13,70.5,94.06,70.5s25.22,13.37,25.22,29.87S108,130.24,94.06,130.24Z"/><path class="cls-6" d="M94.06,72.43c-13,0-23.59,12.51-23.59,27.94S81,128.3,94.06,128.3s23.59-12.51,23.59-27.94S107.09,72.43,94.06,72.43Z"/><ellipse class="cls-5" cx="94.06" cy="100.37" rx="9.31" ry="11.03"/><text class="cls-7" transform="translate(85.89 104.98) scale(0.84 1)">325</text><path class="cls-8" d="M68.84,100.37a34.16,34.16,0,0,0,3,14.22l.67-.46-.67.46c4.27,9.32,12.6,15.64,22.18,15.64,13.93,0,25.22-13.37,25.22-29.87S108,70.5,94.06,70.5v0C80.13,70.5,68.84,83.87,68.84,100.37Z"/><path class="cls-5" d="M94.06,64.69V70.5c13.93,0,25.22,13.37,25.22,29.87S108,130.24,94.06,130.24c-9.58,0-17.91-6.33-22.18-15.64l-4.23,2.94c5.12,11,15,18.51,26.41,18.51,16.64,0,30.12-16,30.12-35.68S110.7,64.69,94.06,64.69Z"/><path class="cls-6" d="M68.84,100.37c0-16.5,11.29-29.87,25.22-29.87V64.69c-16.64,0-30.12,16-30.12,35.68a40.77,40.77,0,0,0,3.71,17.16l4.23-2.94A34.16,34.16,0,0,1,68.84,100.37Z"/><path d="M73.09,47.23l1,.08-.61,7.56,3.63.29-.08,1-4.62-.37Z"/><path d="M81.65,50.44a2.15,2.15,0,0,1,.73.87,3.15,3.15,0,0,1,.26,1.13,8.63,8.63,0,0,1,0,1.38l-3.84-.31A3.07,3.07,0,0,0,79,55.08a1.19,1.19,0,0,0,1,.67,1.31,1.31,0,0,0,1.15-.46,2,2,0,0,0,.39-.71l.87.07a2.46,2.46,0,0,1-.29.75,2.79,2.79,0,0,1-.49.66,2,2,0,0,1-1,.55,2.56,2.56,0,0,1-.73,0,2.07,2.07,0,0,1-1.59-1,3.73,3.73,0,0,1-.49-2.44,4.06,4.06,0,0,1,.88-2.39A2.13,2.13,0,0,1,80.59,50,2.1,2.1,0,0,1,81.65,50.44Zm.12,2.48a3.15,3.15,0,0,0-.16-1.11,1.3,1.3,0,0,0-2.21-.42,2.21,2.21,0,0,0-.54,1.29Z"/><path d="M84.45,50.49l1,5.21,1.88-5,1,.08-2.5,6.09-.95-.08-1.44-6.41Z"/><path d="M92.31,51.3a2.15,2.15,0,0,1,.73.87,3.15,3.15,0,0,1,.26,1.13,8.63,8.63,0,0,1,0,1.38l-3.84-.31a3.07,3.07,0,0,0,.25,1.56,1.19,1.19,0,0,0,1,.67,1.31,1.31,0,0,0,1.15-.46,2,2,0,0,0,.39-.71l.87.07a2.46,2.46,0,0,1-.29.75,2.79,2.79,0,0,1-.49.66,2,2,0,0,1-1,.55,2.56,2.56,0,0,1-.73,0,2.07,2.07,0,0,1-1.59-1,3.73,3.73,0,0,1-.49-2.44,4.06,4.06,0,0,1,.88-2.39,2.13,2.13,0,0,1,1.87-.79A2.1,2.1,0,0,1,92.31,51.3Zm.12,2.48a3.15,3.15,0,0,0-.16-1.11,1.3,1.3,0,0,0-2.21-.42,2.21,2.21,0,0,0-.54,1.29Z"/><path d="M94.89,49l.89.07-.7,8.58-.89-.07Z"/><path d="M105.9,51.12a5.39,5.39,0,0,1,.48,3,5.79,5.79,0,0,1-1.08,3.13A3.3,3.3,0,0,1,99.9,57a5.59,5.59,0,0,1-.59-3.26,5.78,5.78,0,0,1,1-2.92,3,3,0,0,1,2.9-1.36A3.13,3.13,0,0,1,105.9,51.12Zm-1.31,5.4a5.38,5.38,0,0,0,.79-2.49,4.08,4.08,0,0,0-.47-2.49,2.14,2.14,0,0,0-1.75-1.07,2.23,2.23,0,0,0-1.91.77,4.36,4.36,0,0,0-.93,2.64,4.48,4.48,0,0,0,.41,2.45,2.15,2.15,0,0,0,1.9,1.14A2,2,0,0,0,104.59,56.52Z"/><path d="M107.58,52.37l.84.07-.07.89a2.52,2.52,0,0,1,.86-.72,1.85,1.85,0,0,1,1-.16,1.5,1.5,0,0,1,1.44,1.05,3.85,3.85,0,0,1,.1,1.47l-.33,4-.9-.07L110.8,55a2.49,2.49,0,0,0-.07-.93.86.86,0,0,0-.81-.65,1.49,1.49,0,0,0-.52,0,1.35,1.35,0,0,0-.68.46,1.66,1.66,0,0,0-.34.62,5.1,5.1,0,0,0-.14.94L108,58.69l-.89-.07Z"/><path d="M116.45,53.26a2.16,2.16,0,0,1,.73.87,3.12,3.12,0,0,1,.26,1.13,8.53,8.53,0,0,1,0,1.38l-3.84-.31a3.07,3.07,0,0,0,.25,1.56,1.19,1.19,0,0,0,1,.67,1.31,1.31,0,0,0,1.15-.46,2,2,0,0,0,.38-.71l.87.07a2.51,2.51,0,0,1-.29.75,2.81,2.81,0,0,1-.49.66,2,2,0,0,1-1,.55,2.56,2.56,0,0,1-.73,0,2.07,2.07,0,0,1-1.59-1,3.73,3.73,0,0,1-.49-2.44,4.06,4.06,0,0,1,.88-2.39,2.13,2.13,0,0,1,1.87-.79A2.1,2.1,0,0,1,116.45,53.26Zm.12,2.48a3.17,3.17,0,0,0-.16-1.11,1.3,1.3,0,0,0-2.21-.42,2.21,2.21,0,0,0-.54,1.29Z"/><polygon class="cls-5" points="114.72 156.36 76.15 154.36 76.15 140.5 114.72 142.5 114.72 156.36"/><path d="M80.68,143.09l2.9.16a2.19,2.19,0,0,1,2,1.37,4.94,4.94,0,0,1,.16,2.93,7.49,7.49,0,0,1-.91,2.43,3.17,3.17,0,0,1-3,1.8L79,151.62Zm1.22,7.69a2.37,2.37,0,0,0,.83-.08,2.28,2.28,0,0,0,1.09-.82,4.72,4.72,0,0,0,.67-1.3,6.53,6.53,0,0,0,.25-.89,4.6,4.6,0,0,0,0-2.49,1.55,1.55,0,0,0-1.52-1l-1.7-.09-1.29,6.55Z"/><path d="M88.06,143.5l3.3.18a2.57,2.57,0,0,1,1.29.36,1.84,1.84,0,0,1,.61,2.07,2.93,2.93,0,0,1-.52,1.24,2.59,2.59,0,0,1-.91.74,1.25,1.25,0,0,1,.53.57,2.07,2.07,0,0,1,0,1.09l-.19,1.15a4.08,4.08,0,0,0-.07.73.61.61,0,0,0,.21.54l0,.19-1.21-.07a1.12,1.12,0,0,1,0-.29,6.43,6.43,0,0,1,.08-.68l.22-1.43q.13-.84-.29-1.15a1.65,1.65,0,0,0-.83-.2l-2.17-.12-.72,3.66-1-.05Zm2.42,4.08a1.8,1.8,0,0,0,1.13-.27,1.71,1.71,0,0,0,.62-1.15,1.19,1.19,0,0,0-.3-1.27,1.38,1.38,0,0,0-.75-.22l-2.33-.13-.57,2.91Z"/><path d="M95.47,143.91l1,.05-1.68,8.53-1-.05Z"/><path d="M98.63,144.08l.65,7.38,3.49-7.15,1.1.06-4.33,8.38-1-.06-1-8.67Z"/><path d="M104.9,144.43l5.27.29-.21,1-4.31-.24-.51,2.59,4,.22-.19,1-4-.22-.57,2.89,4.38.24-.2,1-5.34-.29Z"/></g></g></svg>