<svg xmlns="http://www.w3.org/2000/svg" viewBox="0 0 206.7 206.16"><defs><style>.cls-1{fill:#f2f2f2;}.cls-2,.cls-3,.cls-4{fill:none;}.cls-2,.cls-3,.cls-4,.cls-6{stroke:#000;stroke-miterlimit:10;stroke-width:0.25px;}.cls-3{stroke-dasharray:10.34 10.34;}.cls-4{stroke-dasharray:10.31 10.31;}.cls-5,.cls-6{fill:#fff;}.cls-7{font-size:5.26px;}.cls-7,.cls-8,.cls-9{font-family:Helvetica, Helvetica;}.cls-8{font-size:7.91px;}.cls-9{font-size:3.96px;}</style></defs><title>square_wikihood</title><g id="Layer_2" data-name="Layer 2"><g id="Layer_1-2" data-name="Layer 1"><rect class="cls-1" x="0.12" y="0.12" width="206.45" height="205.92"/><polyline class="cls-2" points="206.57 201.04 206.57 206.04 201.57 206.04"/><line class="cls-3" x1="191.23" y1="206.04" x2="10.29" y2="206.04"/><polyline class="cls-2" points="5.12 206.04 0.12 206.04 0.12 201.04"/><line class="cls-4" x1="0.12" y1="190.73" x2="0.12" y2="10.28"/><polyline class="cls-2" points="0.12 5.12 0.12 0.12 5.12 0.12"/><line class="cls-3" x1="15.46" y1="0.12" x2="196.4" y2="0.12"/><polyline class="cls-2" points="201.57 0.12 206.57 0.12 206.57 5.12"/><line class="cls-4" x1="206.57" y1="15.44" x2="206.57" y2="195.88"/><rect class="cls-5" x="128.21" y="1.19" width="78.1" height="203.64"/><polygon class="cls-6" points="103.35 77.2 58.67 77.2 56.33 82.15 53.94 77.2 9.31 77.2 9.31 28 103.35 28 103.35 77.2"/><rect class="cls-6" x="133.95" y="21.7" width="33.31" height="6.31"/><rect class="cls-2" x="172.2" y="21.7" width="15.43" height="6.31"/><text class="cls-7" transform="translate(13.77 38.47) scale(1.01 1)">Location Name</text><text class="cls-8" transform="translate(131.4 11.5) scale(1.01 1)">WikiHood</text><text class="cls-7" transform="translate(133.95 37.21) scale(1.01 1)">Location Name</text><text class="cls-9" transform="translate(173.43 26.13) scale(1.01 1)">Search</text><text class="cls-7" transform="translate(133.95 82.31) scale(1.01 1)">Location Name</text><text class="cls-9" transform="translate(13.77 47.25) scale(1.01 1)">Lorem ipsum dolor sit amet, consectetuer <tspan x="0" y="4.75">adipiscing elit, sed diam nonummy nibh </tspan><tspan x="0" y="9.5">euismod tincidunt ut laoreet dolore magna </tspan><tspan x="0" y="14.25">aliquam erat volutpat. Ut wisi enim ad minim </tspan><tspan x="0" y="19">veniam, quis nostrud exerci tation </tspan><tspan x="0" y="23.74">ullamcorper suscipit lobortis nisl ut aliquip ex </tspan></text><text class="cls-9" transform="translate(133.95 45.36) scale(1.01 1)">Lorem ipsum dolor sit amet, <tspan x="0" y="4.75">consectetuer adipiscing elit, sed </tspan><tspan x="0" y="9.5">diam nonummy nibh euismod </tspan><tspan x="0" y="14.25">tincidunt ut laoreet dolore magna </tspan><tspan x="0" y="19">aliquam erat volutpat. </tspan></text><text class="cls-7" transform="translate(133.95 92.2) scale(1.01 1)">Location Name</text><text class="cls-7" transform="translate(133.95 102.09) scale(1.01 1)">Location Name</text><text class="cls-7" transform="translate(133.95 111.99) scale(1.01 1)">Location Name</text><text class="cls-7" transform="translate(133.95 121.88) scale(1.01 1)">Location Name</text><text class="cls-7" transform="translate(133.95 131.78) scale(1.01 1)">Location Name</text><text class="cls-7" transform="translate(133.95 141.67) scale(1.01 1)">Location Name</text><text class="cls-7" transform="translate(133.95 151.56) scale(1.01 1)">Location Name</text><text class="cls-7" transform="translate(133.95 161.46) scale(1.01 1)">Location Name</text><text class="cls-7" transform="translate(133.95 171.35) scale(1.01 1)">Location Name</text><text class="cls-7" transform="translate(133.95 181.24) scale(1.01 1)">Location Name</text><text class="cls-7" transform="translate(133.95 191.14) scale(1.01 1)">Location Name</text><path class="cls-6" d="M40.62,105.2a2.92,2.92,0,0,0-2.93,2.9c0,1.6,2.93,4.88,2.93,4.88s2.93-3.28,2.93-4.88A2.92,2.92,0,0,0,40.62,105.2Zm0,4.21a1.28,1.28,0,1,1,1.29-1.28A1.29,1.29,0,0,1,40.62,109.41Z"/><path class="cls-6" d="M56.33,83.08A2.92,2.92,0,0,0,53.4,86c0,1.6,2.93,4.88,2.93,4.88s2.93-3.28,2.93-4.88A2.92,2.92,0,0,0,56.33,83.08Zm0,4.21A1.28,1.28,0,1,1,57.62,86,1.29,1.29,0,0,1,56.33,87.29Z"/><path class="cls-6" d="M53.94,91.79A2.92,2.92,0,0,0,51,94.69c0,1.6,2.93,4.88,2.93,4.88s2.93-3.28,2.93-4.88A2.92,2.92,0,0,0,53.94,91.79Zm0,4.21a1.28,1.28,0,1,1,1.29-1.28A1.29,1.29,0,0,1,53.94,96Z"/><path class="cls-6" d="M65.85,93.41a2.92,2.92,0,0,0-2.93,2.9c0,1.6,2.93,4.88,2.93,4.88s2.93-3.28,2.93-4.88A2.92,2.92,0,0,0,65.85,93.41Zm0,4.21a1.28,1.28,0,1,1,1.29-1.28A1.29,1.29,0,0,1,65.85,97.62Z"/><path class="cls-6" d="M78.22,118a2.92,2.92,0,0,0-2.93,2.9c0,1.6,2.93,4.88,2.93,4.88s2.93-3.28,2.93-4.88A2.92,2.92,0,0,0,78.22,118Zm0,4.21a1.28,1.28,0,1,1,1.29-1.28A1.29,1.29,0,0,1,78.22,122.2Z"/><path class="cls-6" d="M56.87,103.08a2.92,2.92,0,0,0-2.93,2.9c0,1.6,2.93,4.88,2.93,4.88s2.93-3.28,2.93-4.88A2.92,2.92,0,0,0,56.87,103.08Zm0,4.21A1.28,1.28,0,1,1,58.16,106,1.29,1.29,0,0,1,56.87,107.29Z"/><path class="cls-6" d="M40,80.16A2.92,2.92,0,0,0,37,83.06c0,1.6,2.93,4.88,2.93,4.88s2.93-3.28,2.93-4.88A2.92,2.92,0,0,0,40,80.16Zm0,4.21a1.28,1.28,0,1,1,1.29-1.28A1.29,1.29,0,0,1,40,84.37Z"/><path class="cls-6" d="M5.48,53.21a2.92,2.92,0,0,0-2.93,2.9c0,1.6,2.93,4.88,2.93,4.88s2.93-3.28,2.93-4.88A2.92,2.92,0,0,0,5.48,53.21Zm0,4.21a1.28,1.28,0,1,1,1.29-1.28A1.29,1.29,0,0,1,5.48,57.42Z"/><path class="cls-6" d="M9.31,122.71a2.92,2.92,0,0,0-2.93,2.9c0,1.6,2.93,4.88,2.93,4.88s2.93-3.28,2.93-4.88A2.92,2.92,0,0,0,9.31,122.71Zm0,4.21a1.28,1.28,0,1,1,1.29-1.28A1.29,1.29,0,0,1,9.31,126.92Z"/><line class="cls-6" x1="128.21" y1="15.57" x2="196.31" y2="15.57"/></g></g></svg>